<?xml version="1.0" encoding="UTF-8" standalone="no"?>
<svg xmlns:rdf="http://www.w3.org/1999/02/22-rdf-syntax-ns#" xmlns="http://www.w3.org/2000/svg" height="805.31" viewBox="0 0 477.1875 805.3125" width="477.19" version="1.1" xmlns:cc="http://creativecommons.org/ns#" xmlns:dc="http://purl.org/dc/elements/1.1/">
<path d="m324.38 804.68c-0.77344-0.32799-4.6229-3.0397-8.5543-6.026s-8.2707-5.7114-9.6428-6.0558c-2.9811-0.74821-5.2404-5.4329-5.2404-10.866 0-2.0177-0.70468-4.744-1.566-6.0584-1.3027-1.9882-1.3826-2.897-0.47503-5.4068 0.60001-1.6593 1.4885-4.8932 1.9744-7.1864 0.48592-2.2933 1.3224-5.8571 1.8589-7.9196 2.4225-9.3135 0.26263-19.078-4.6723-21.122-1.5098-0.62537-2.745-1.7187-2.745-2.4295 0-1.8996-6.0724-1.6487-8.0539 0.3328-1.3664 1.3664-3.2062 1.5931-11.551 1.4231-5.4593-0.11121-14.108 0.21451-19.218 0.72384-10.44 1.0404-14.286 0.54711-31.489-4.0394-13.515-3.6034-16.169-5.266-15.764-9.8781 0.24613-2.806-0.0957-3.5652-2.0483-4.5491-3.407-1.7168-2.9036-3.1559 2.0526-5.8684 2.418-1.3233 6.3562-3.8221 8.7516-5.5528 2.7127-1.96 5.8278-3.309 8.2598-3.5771 6.0627-0.66811 12.113-3.7757 14.699-7.5501 2.3911-3.4896 6.9127-6.793 9.3618-6.8395 1.581-0.0301 10.316-6.1791 10.306-7.255-0.0103-1.1155-6.0518-4.9128-7.8162-4.9128-0.88706 0-1.9721 0.94922-2.4112 2.1094-0.67568 1.7851-0.90825 1.3888-1.5129-2.5781-0.45661-2.9958-2.4931-7.7722-5.6429-13.235-8.2708-14.344-11.256-22.146-12.514-32.702-0.61442-5.1562-1.5643-12.858-2.1109-17.115-0.54658-4.2572-0.73564-8.413-0.42016-9.2352 0.7611-1.9834-3.1312-8.8057-5.0239-8.8057-1.4265 0-3.7912 8.7559-3.7912 14.038 0 1.0448-0.6137 1.8996-1.3638 1.8996-2.1095 0-2.7528-5.8851-1.4953-13.68 1.376-8.5299 0.8333-11.303-3.1266-15.976-3.031-3.5765-9.9518-14.796-9.9518-16.133 0-0.37827-1.6291-3.8361-3.6202-7.6841s-3.9248-8.6643-4.297-10.703c-0.37226-2.0385-1.4348-5.2026-2.3612-7.0312-0.92641-1.8287-1.9792-5.2233-2.3396-7.5436-0.98171-6.3212-6.6535-17.701-9.3295-18.718-1.2206-0.46407-3.4424-2.665-4.9374-4.8909-3.1317-4.663-5.3237-5.2224-5.7556-1.4691-0.35074 3.0483-0.81715 3.1319-3.9221 0.70313-1.2891-1.0083-2.7656-1.8521-3.2812-1.875-4.2229-0.1878-5.1526-2.9843-4.3631-13.125 0.8037-10.324 0.59645-12.494-1.138-11.916-1.8488 0.61626-3.4906 10.176-3.715 21.632-0.25646 13.09-1.5445 15.286-8.4248 14.363-4.8316-0.64805-5.1199-1.1565-2.1934-3.8687 3.2108-2.9757 3.2901-6.9449 0.19688-9.8509-1.2616-1.1852-2.4218-3.0517-2.5781-4.1478-0.44645-3.1294-2.9414-2.377-3.6528 1.1016-1.592 7.7838-3.7436 3.8718-3.0214-5.4933 0.44058-5.7134 0.24256-7.5927-0.99983-9.4888-1.358-2.0726-1.4351-3.6644-0.62481-12.898 0.80954-9.2252 0.70073-11.485-0.87571-18.186-0.99006-4.2088-2.3479-12.471-3.0174-18.361-1.2249-10.776-2.8194-14.162-4.1492-8.8109-0.3615 1.4546-2.6359 7.4963-5.0542 13.426-7.636 18.724-8.7512 23.458-7.9494 33.75 1.277 16.391 1.2206 17.129-1.4083 18.452-1.2891 0.64856-2.4006 1.7193-2.47 2.3794-0.0695 0.66013-0.1749 1.7569-0.23438 2.4373-0.27012 3.0901-4.3806 0.52809-6.6706-4.1578-3.7636-7.701-7.9521-11.415-5.0558-4.4834 3.3491 8.0156-1.3296 10.598-5.1689 2.8532-5.8534-11.808 4.6302-16.642 12.347-5.6938 3.8152 5.4126 4.5654 4.3411 3.001-4.2866-0.7012-3.8672-1.2971-8.8242-1.3242-11.016-0.0391-3.1559-0.39044-3.9817-1.69-3.9716-3.6667 0.0286-5.7869 1.2429-6.6891 3.8311-1.1028 3.1636-3.8577 3.6934-3.8577 0.74195 0-1.5775-0.42593-1.8726-2.1094-1.4614-1.1602 0.28339-2.9283-0.0927-3.9292-0.83587-3.8233-2.8386-7.0864-0.69816-7.0864 4.6482 0 4.0245-2.8162 11.237-5.2444 13.432l-2.3097 2.0877 9.1677 9.0362 9.1677 9.0362 5.347-0.55806c6.0459-0.63099 7.5942 0.43485 4.0271 2.7721-6.414 4.2026-15.521 0.50807-24.146-9.7951-6.5882-7.8706-6.8908-8.4922-5.4344-11.164 0.48812-0.89535 1.7144-4.1592 2.7251-7.2529l1.8376-5.625-2.1178-6.5208c-2.3006-7.0836-2.186-6.9711-10.276-10.093-6.0959-2.3522-8.5338-4.8652-6.1817-6.3722 0.77344-0.49553 2.0391-0.66491 2.8125-0.3764 6.3527 2.3696 8.4917 0.50077 5.221-4.5616-1.2247-1.8956-1.0653-2.5428 1.8314-7.4348 1.7451-2.9471 4.2362-8.4315 5.5358-12.188 1.3127-3.7939 3.3457-7.6624 4.5741-8.704 2.9393-2.4924 8.0594-13.455 9.1158-19.518 2.5471-14.618 7.8176-33.499 10.254-36.732 0.38848-0.51562 2.5454-4.5234 4.7932-8.9062 5.7259-11.165 11.581-20.996 16.756-28.133 2.4331-3.3562 4.9808-7.153 5.6617-8.4375 0.68085-1.2845 3.9675-5.2885 7.3037-8.8979 5.507-5.9579 10.554-12.556 15.687-20.51 2.0987-3.2518 4.7491-10.092 6.4013-16.521 0.83069-3.2324 1.5226-4.2188 2.9592-4.2188 2.4665 0 3.0758 6.695 1.0549 11.591-0.7739 1.8749-2.9219 6.9949-4.7733 11.378-4.2612 10.088-15.5 43.626-15.5 46.254 0 3.4867 5.0135-6.0327 7.0793-13.442 0.35941-1.2891 2.9574-7.8281 5.7733-14.531 2.8159-6.7031 5.7456-14.086 6.5104-16.406 0.76485-2.3203 2.2101-6.017 3.2116-8.2148 1.0016-2.1978 2.7259-6.7527 3.8319-10.122l2.0109-6.1257-2.0212-1.4157c-2.8798-2.0171-2.5316-3.398 1.7182-6.8132 2.1638-1.7389 4.7536-5.1488 6.1463-8.0928 2.1661-4.5787 3.0245-5.3918 8.5808-8.1271 8.5307-4.1996 12.084-11.476 7.7296-15.83-1.6335-1.6335-1.8848-2.887-1.6406-8.1856 0.20653-4.4827-0.044-6.2949-0.88362-6.3914-0.64453-0.0742-1.599-0.18749-2.1211-0.25194-0.52209-0.0644 0.0593-1.7148 1.2919-3.6675 3.7195-5.892 7.7676-14.414 9.5584-20.122 2.6797-8.5409 5.0507-7.743 2.6498 0.89176-2.2478 8.0841-2.5282 10.303-1.391 11.006 1.5632 0.96614 1.2595 2.7762-1.4599 8.6998-4.0479 8.8175-4.3695 11.447-1.5319 12.525 1.9982 0.7597 2.2853 1.3292 1.8265 3.6232-1.7003 8.5017 4.9094 23.489 10.359 23.489 2.8779 0 3.0837 0.21128 3.0837 3.1665 0 3.709 1.0125 4.7244 6.0938 6.1111 6.7298 1.8366 13.594 6.3924 13.594 9.0226 0 3.1527-4.3977 3.4103-4.8567 0.28439-0.59576-4.0576-11.693-7.9403-14.934-5.2252-1.6472 1.3799-4.7047 8.8529-7.3835 18.047-3.2015 10.988-6.7184 22.307-8.0889 26.035-0.71479 1.944-1.2996 4.3214-1.2996 5.283 0 1.6792-0.86327 4.8806-4.7693 17.686-1.9558 6.4121-2.217 8.6522-1.0089 8.6522 0.94084 0 11.667-31.961 17.461-52.031 5.7869-20.044 6.019-20.307 13.985-15.855 2.388 1.3347 4.9212 3.254 5.6295 4.2651 0.96444 1.377 1.9046 1.6836 3.7451 1.2217 2.0297-0.50942 2.4574-0.29478 2.4574 1.2334 0 2.8092 3.5757 6.7906 6.0986 6.7906 1.3892 0 2.434 0.69776 2.8076 1.875 0.38025 1.1981 1.4185 1.875 2.8757 1.875 2.8373 0 2.943 1.8273 0.46744 8.0781-0.99722 2.518-2.9023 8.1641-4.2335 12.547-4.1191 13.562-7.2561 23.631-9.4924 30.469-3.5764 10.936-10.416 33.131-13.578 44.062-1.6406 5.6719-4.6199 15.635-6.6206 22.14-2.0007 6.5049-3.6377 12.579-3.6377 13.498 0 0.91869-0.80649 4.034-1.7922 6.9228-4.9369 14.469-6.2851 21.888-4.2799 23.552 2.3197 1.9252 3.2369 0.1842 6.5184-12.372 1.6605-6.3536 3.9102-14.505 4.9994-18.114 1.0892-3.6094 3.9152-13.523 6.2799-22.031 18.072-65.017 27.24-92.211 31.936-94.724 1.1836-0.63346 2.6552-2.3666 3.2703-3.8514 0.63419-1.5311 2.5135-3.3617 4.3417-4.2292 1.7729-0.8413 5.1999-3.8125 7.6155-6.6027s6.2905-6.0622 8.6108-7.2712c2.3203-1.2089 5.2734-3.1036 6.5625-4.2104 3.6911-3.1692 9.2069-6.5333 11.765-7.1753 2.7414-0.68805 5.1101-3.71 5.1101-6.5195 0-2.7635-0.99558-3.462-2.7364-1.9198-3.0884 2.736-8.5369 5.1627-13.758 6.128-7.0677 1.3065-8.1097 1.2672-10.279-0.38798-2.7496-2.0978-0.25114-3.2632 7.0864-3.3053 6.6758-0.0383 12.242-2.0456 17.169-6.1911 1.7036-1.4334 3.0608-2.0195 3.2641-1.4094 2.5658 7.6973 14.148-8.5564 21.772-30.554 1.4662-4.2304 3.3765-9.1891 4.245-11.019 1.6965-3.5751 1.5696-4.7594-1.3605-12.695-2.7362-7.4107-2.5524-15.938 0.34348-15.938 0.75361 0 1.3673 2.1086 1.7233 5.9212 0.66397 7.1103 3.5225 15.114 6.7182 18.81 2.5923 2.9985 2.3049 4.5767-0.7614 4.1808-3.1502-0.40676-4.4484 0.87572-3.769 3.7232 1.0052 4.2128 2.0959 4.8984 7.4375 4.6749 5.7264-0.23963 8.2885 1.4018 9.185 5.8846 0.30655 1.5327 1.3042 3.0436 2.217 3.3577 0.9128 0.31403 6.3003 2.8113 11.972 5.5495 5.6719 2.7382 11.895 5.6138 13.828 6.3903 3.653 1.4669 4.3849 2.7565 2.2923 4.039-3.9676 2.4316-8.0466 14.315-5.7143 16.647 1.9025 1.9025 1.8441 2.1859-4.2588 20.665-6.7593 20.467-11.629 36.362-13.643 44.531-0.82634 3.3516-2.9604 9.7436-4.7423 14.205-3.5328 8.8441-5.5612 21.222-3.0493 18.608 0.74307-0.77344 4.847-11.953 9.1198-24.844 9.3086-28.083 15.792-47.128 16.914-49.688 0.45221-1.0312 1.9511-5.0391 3.3309-8.9062 10.405-29.164 15.013-33.719 19.643-19.418 2.6094 8.0596 4.7134 10.851 10.442 13.856 2.5235 1.3233 5.9268 3.7491 7.5629 5.3906s3.7877 2.9846 4.7812 2.9846c3.1241 0 13.432 8.3966 16.688 13.594 6.0202 9.6096 16.068 17.972 20.561 17.113 2.8659-0.54786 3.7312 0.0791 4.8468 3.5116 0.64322 1.979 1.8355 3.117 4.0232 3.8402 1.7366 0.57401 3.6845 2.126 4.4126 3.5156 1.2512 2.3881 2.1935 2.8926 4.7719 2.5551 0.65143-0.0853 1.4601 0.60302 1.797 1.5296 0.33689 0.92653 2.0188 3.2678 3.7374 5.2029 2.192 2.468 3.1249 4.4368 3.1249 6.595 0 1.6922 0.84375 5.4773 1.875 8.4114 2.759 7.8498 2.5348 8.7539-3.7022 14.933-6.962 6.8975-24.003 28.59-25.757 32.788-0.7193 1.7213-2.1479 4.1974-3.1746 5.5025s-3.4402 5.4228-5.3632 9.1504c-3.1463 6.0989-6.6505 10.167-11.069 12.852-1.0438 0.63408-1.7094 2.758-2.0565 6.5625-0.28231 3.0938-1.1996 7.8177-2.0384 10.498-2.6777 8.5552 1.8213 10.365 5.6611 2.2773 2.0018-4.2164 6.4628-7.1895 4.8924-3.2606-0.38158 0.95464-1.2235 4.8998-1.8709 8.767-1.3054 7.7975-2.9474 12.172-7.105 18.929-1.5353 2.4952-2.7914 4.9756-2.7914 5.5122 0 0.53654-1.437 4.4325-3.1934 8.6578-1.7564 4.2252-3.9193 10.424-4.8066 13.776-0.88728 3.3516-2.3484 7.7812-3.2468 9.8438-0.89848 2.0625-1.9261 4.8047-2.2836 6.0938-0.35749 1.2891-1.0254 3.1875-1.4844 4.2188-1.6252 3.6522-2.5729 8.6907-1.8535 9.8547 0.98651 1.5962 2.2209-0.88323 3.7392-7.5109 0.6497-2.8359 2.7846-8.5482 4.7441-12.694 1.9596-4.1457 3.8593-8.7863 4.2216-10.312 0.36228-1.5262 1.6582-5.0022 2.8798-7.7245s2.2211-5.5232 2.2211-6.2243c0-0.70104 0.82972-2.2706 1.8438-3.4878 2.495-2.9949 2.4112-1.3107-0.4492 9.0302-1.2827 4.637-2.3321 9.8331-2.3321 11.547 0 1.7824-0.9339 4.3933-2.1821 6.1004-2.7735 3.7932-7.1929 13.87-7.1929 16.4 0 1.0621-0.45354 3.1187-1.0079 4.5703-1.2718 3.3302-4.3014 18.719-5.0989 25.9-0.66565 5.9935-2.5766 7.8913-4.8354 4.8022-1.2329-1.6861-1.1619-5.0071 0.27173-12.72 0.38816-2.0881 0.0174-2.6227-2.4041-3.4669-3.3578-1.1705-3.4676-2.0789-1.2822-10.607 1.383-5.3967 1.4288-6.7384 0.34256-10.03-1.7288-5.2383 1.8182-22.083 7.4335-35.303 1.6347-3.8484 8.4557-25.948 8.4557-27.396 0-5.6723-5.058 0.93652-7.3346 9.5834-1.086 4.125-3.4792 12.54-5.3182 18.7-1.839 6.1598-3.7373 13.975-4.2184 17.367-0.48111 3.3923-1.5626 7.5466-2.4034 9.2319-1.2014 2.4082-1.4594 5.213-1.2052 13.101 0.31809 9.8703-2.6907 16.109-3.7106 7.6934-0.46415-3.8298-4.9431-19.146-5.8807-20.109-0.47655-0.48984-0.86647-1.5964-0.86647-2.459 0-2.573-3.8632-10.509-4.6931-9.6406-1.0826 1.1326-2.5824 12.624-3.653 27.99-0.91219 13.092-3.2094 25.67-6.5506 35.867-4.13 12.604-5.6104 17.919-6.591 23.664-1.4405 8.4402-0.66847 29.865 1.362 37.799 1.5148 5.9188 1.5256 6.7531 0.14526 11.25-0.81997 2.6714-2.1482 8.0211-2.9517 11.888-0.80349 3.8672-2.1109 9.3516-2.9054 12.188-0.79448 2.8359-1.8493 9.5859-2.3441 15-1.7113 18.726-5.4141 34.7-10.648 45.938-2.9318 6.2943-3.1797 10.883-0.63163 11.691 2.8495 0.90439 3.0396 3.0895 0.67954 7.8126-4.523 9.0521-3.8682 12.436 4.5478 23.502 5.9273 7.7939 7.6007 16.713 4.4195 23.557-1.0786 2.3203-2.8456 7.0102-3.9266 10.422-2.8697 9.057-15.235 14.383-24.384 10.503zm7.3574-10.348 10.639-1.6364 1.7877-3.5042c1.5692-3.0759 3.7671-9.9448 5.2606-16.44 0.3688-1.604-0.89809-3.6545-5.3843-8.7147-6.6102-7.4559-8.4325-7.8969-9.5369-2.3078-1.4145 7.1581-1.7291 7.9638-3.1097 7.9638-1.6282 0-1.913-4.768-0.44836-7.5047 0.93051-1.7387-0.29347-3.6749-1.2968-2.0514-0.44271 0.7163-1.6609 6.8986-3.2534 16.511-0.33474 2.0205-1.136 3.8487-1.7805 4.0625-1.522 0.50498-1.5522-5.456-0.0683-13.509 0.82597-4.4827 0.83473-6.2577 0.0349-7.0576-1.4474-1.4474-2.7117 2.0098-3.5458 9.6961-0.82104 7.5657-1.83 9.6612-2.714 5.6366-0.35862-1.6328-1.4735-3.5441-2.4775-4.2473-1.717-1.2026-1.7636-1.774-0.78462-9.6105 0.57248-4.5826 1.3812-11.285 1.7972-14.894 0.41597-3.6094 1.2564-9.4042 1.8676-12.877 1.4636-8.3167 0.9113-10.853-1.2788-5.8725-1.5935 3.6238-2.9664 9.3201-4.0104 16.641-0.27578 1.9336-0.80335 3.5156-1.1724 3.5156-0.71801 0-0.43562-1.9352 3.1464-21.562 2.7198-14.903 2.7961-15.938 1.1755-15.938-1.5549 0-7.6132 24.836-10.176 41.719-1.9266 12.689-0.66456 26.968 2.7134 30.701 1.2954 1.4314 1.3287 1.9878 0.24029 4.0215-1.1232 2.0988-1.0623 2.5011 0.54958 3.6324 0.997 0.69971 2.8674 2.1507 4.1565 3.2245 2.8978 2.4138 4.384 2.4478 17.67 0.40421zm-11.142-38.526c0.59377-4.4798 1.4757-10.044 1.9599-12.364 0.48419-2.3203 2.1409-10.758 3.6815-18.75 1.5406-7.9922 3.6761-18.539 4.7456-23.438 1.0694-4.8984 2.5323-11.859 3.2508-15.469 0.71851-3.6094 1.7757-8.8207 2.3493-11.581 1.0243-4.9286 0.70703-6.9612-0.81668-5.2318-0.42402 0.48125-1.2922 3.4062-1.9293 6.5-1.3463 6.5375-2.6614 11.942-3.8945 16.004-0.48068 1.5835-0.86856 3.9038-0.86195 5.1562 0.007 1.2525-0.65526 5.4412-1.4708 9.3084-0.81555 3.8672-2.1365 10.195-2.9354 14.062-0.79893 3.8672-2.0804 9.5625-2.8477 12.656-2.5678 10.354-4.7555 24.734-4.8491 31.875-0.0769 5.8633 2.512-0.38291 3.6184-8.7299zm-14.5-31.27c0.37104-3.2625 0.38958-5.6591 0.0412-5.3257-1.3275 1.2703-3.0369 9.9379-2.5704 13.033 0.62305 4.1342 1.4792 1.5252 2.5292-7.7075zm-48.098 2.8735c1.04-0.55659 1.7291-2.058 1.7975-3.9165l0.11092-3.0139 0.62694 2.8125c1.4237 6.3867 9.6207 1.564 10.519-6.1886 0.32245-2.7837 1.0366-7.3817 1.5869-10.218 0.55036-2.8359 1.6951-8.7422 2.5439-13.125 0.84876-4.3828 1.8854-10.289 2.3036-13.125 0.41824-2.8359 1.2282-7.1685 1.7998-9.6278 0.57168-2.4594 1.2237-5.8344 1.4489-7.5 0.22521-1.6656 0.84601-5.9816 1.3796-9.5909 1.8896-12.782-0.33138-8.8231-3.6812 6.5625-3.227 14.821-5.4034 24.235-6.8276 29.531-0.76259 2.8359-1.7016 6.8438-2.0866 8.9062-1.1771 6.3054-1.6187 1.8541-0.48722-4.912 0.5829-3.4859 1.4503-8.8692 1.9276-11.963 0.47725-3.0938 1.3428-7.7344 1.9234-10.312 0.5806-2.5781 1.1606-5.3203 1.289-6.0938 1.3466-8.1163 2.6824-14.495 4.3197-20.625 0.72124-2.7005 4.1024-17.842 14.026-62.812 0.39824-1.8047 1.5426-6.4453 2.543-10.312 1.0004-3.8672 2.3614-9.5625 3.0243-12.656 1.9767-9.2248 14.394-57.623 16.596-64.688 0.80377-2.5781 1.805-6.375 2.2249-8.4375 0.78604-3.8606 4.5708-18.593 5.4191-21.094 0.62618-1.8461 3.5226-11.71 6.1939-21.094 1.1743-4.125 2.3894-8.1328 2.7002-8.9062 1.88-4.6782 3.6108-11.417 3.071-11.956-2.4054-2.4054-5.9733 5.3541-10.455 22.738-1.3293 5.1562-4.022 14.859-5.9838 21.562-1.9618 6.7031-4.4734 15.984-5.5813 20.625-1.1079 4.6406-3.0507 12.234-4.3174 16.875-2.3991 8.7897-4.4455 16.406-6.5487 24.375-0.68045 2.5781-3.1588 12.703-5.5074 22.5-3.7618 15.692-5.2686 22.214-9.2051 39.844-0.51809 2.3203-1.2888 5.6953-1.7126 7.5-2.217 9.4394-5.8564 26.41-6.6348 30.938-0.4875 2.8359-1.9074 9.375-3.1553 14.531-1.2479 5.1562-2.6972 11.906-3.2206 15-1.8181 10.746-5.118 28.653-6.6513 36.094-0.47817 2.3203-1.4949 7.693-2.2594 11.939-1.6515 9.1729-3.6254 13.637-2.8044 6.3418 0.29016-2.5781 0.75637-5.3203 1.036-6.0938 0.53846-1.4893 2.1528-15.11 2.442-20.603 0.32889-6.2482-6.2307-2.7857-10.615 5.6032-4.3195 8.2648-14.243 14.062-24.07 14.062-13.241 0-17.281 6.8533-6.8195 11.568 4.1978 1.8918 9.1657 4.7036 11.04 6.2484 2.1027 1.7332 4.4924 2.8142 6.2408 2.8231 1.5583 0.007 3.4661 0.44783 4.2395 0.97762 1.5906 1.0895 11.609 0.32132 14.251-1.0928zm-2.9957-14.609c0.006-10.168 1.2388-16.227 3.3022-16.227 1.0487 0 1.2346 0.97912 0.84537 4.4531-2.4835 22.168-4.1561 26.916-4.1475 11.774zm77.588 11.357c0.6531-2.5384 1.5597-6.9356 2.0146-9.7716 0.45495-2.8359 1.4793-7.4766 2.2764-10.312 0.79708-2.8359 2.1369-8.5312 2.9773-12.656 0.84046-4.125 2.1138-9.8203 2.8296-12.656 2.1721-8.605 8.9767-42.529 11.33-56.484 1.1057-6.5572-1.9503-4.451-3.3098 2.2811-0.44949 2.2259-1.4539 6.5783-2.2321 9.672-0.77816 3.0938-2.073 8.5781-2.8775 12.188-0.80446 3.6094-2.3449 10.293-3.4231 14.853-1.0783 4.5598-2.3169 10.888-2.7525 14.062-0.43564 3.1746-1.4366 8.3032-2.2244 11.397-0.78777 3.0938-2.1404 9.8438-3.0058 15-0.86542 5.1562-1.9528 10.598-2.4163 12.093-0.46355 1.4949-0.84282 3.8958-0.84282 5.3353s-0.42188 2.878-0.9375 3.1967c-0.51563 0.31867-0.9375 2.0662-0.9375 3.8834 0 4.7771 2.0825 3.5501 3.5312-2.0806zm-104.78 3.5878c-0.00093-0.84436-8.7444-5.8594-10.215-5.8594-2.1973 0-0.86263 1.8341 2.9507 4.0547 3.9786 2.3169 7.2665 3.1336 7.2647 1.8046zm49.631-4.8909c1.7817-0.95354 3.1306-8.002 4.3118-22.531 0.61184-7.5259 2.3118-18.999 4.7228-31.875 0.82067-4.3828 1.8546-10.078 2.2976-12.656 0.443-2.5781 1.2102-6.375 1.7049-8.4375s1.7888-7.7578 2.8759-12.656c1.087-4.8984 2.3608-10.172 2.8305-11.719 0.46974-1.5469 1.1389-5.3438 1.4871-8.4375 0.34814-3.0938 0.97003-6.0469 1.382-6.5625 0.41195-0.51563 1.4702-4.4988 2.3518-8.8516 0.88155-4.3528 1.8146-8.466 2.0735-9.1406 0.25888-0.6746 0.004-1.2265-0.56713-1.2265-0.57079 0-1.0378 0.84375-1.0378 1.875s-0.3794 1.875-0.8431 1.875-1.0567 1.793-1.3177 3.9844c-0.59326 4.9804-2.1403 11.696-4.3732 18.984-0.94784 3.0938-2.4221 9-3.2762 13.125-2.7017 13.049-5.2237 24.218-6.562 29.062-1.4466 5.236-4.4492 18.62-6.0994 27.188-1.0188 5.2896-2.6812 13.609-4.8708 24.375-0.52434 2.5781-1.394 6.2382-1.9325 8.1334-1.5881 5.5887 0.41517 7.8605 4.8421 5.4913zm21.731-10.353c0.31894-3.346 0.84395-6.7165 1.1667-7.49 0.57651-1.3815 1.141-4.7201 3.8047-22.5 0.73386-4.8984 1.6492-10.383 2.034-12.188 0.63753-2.9897 0.56071-3.1669-0.86466-1.9946-0.8604 0.70767-1.5644 2.5284-1.5644 4.046s-0.44397 3.5889-0.98661 4.6028c-0.54263 1.0139-1.6367 5.3104-2.4312 9.5478-1.653 8.8156-2.7476 14.338-4.0357 20.36-1.5461 7.2287-1.2645 12.379 0.65667 12.012 1.2858-0.24544 1.766-1.6289 2.2205-6.3969zm-7.1797-0.86709c0.67887-1.0984 10.812-50.662 11.465-56.076 0.85116-7.0617-1.1491-4.2451-3.6618 5.1562-4.5698 17.098-6.1026 23.196-7.2463 28.828-0.62829 3.0938-1.5295 7.3938-2.0026 9.5558-1.7123 7.8237-0.75742 16.101 1.4461 12.536zm38.443-33.107c0.37621-2.1914 0.74816-5.25 0.82656-6.7969s0.38147-3.0234 0.6735-3.2812c0.29203-0.25781 1.2897-3.8438 2.217-7.9688 2.7894-12.408 3.1174-13.818 4.6874-20.156 3.0697-12.392 5.3596-21.253 7.0255-27.188 5.0295-17.916 6.1725-27.188 3.3516-27.188-0.8116 0-1.4062 0.84775-1.4062 2.0048 0 1.1026-1.2656 6.3849-2.8125 11.738-1.5469 5.3534-2.8125 10.793-2.8125 12.088 0 1.2949-2.0789 11.095-4.6197 21.777-2.5408 10.683-5.308 22.798-6.1492 26.923-0.84123 4.125-1.9048 9.1875-2.3634 11.25-1.8695 8.4068-2.0076 10.781-0.62735 10.781 0.82687 0 1.5825-1.4985 2.0093-3.9844zm-63.376-9.375c0.42073-1.1602 1.4741-6.1172 2.3409-11.016 2.4689-13.953 3.2081-17.905 4.3836-23.438 4.1376-19.474 9.3638-44.427 10.014-47.812 0.24752-1.2891 1.2168-5.0859 2.1541-8.4375 0.93721-3.3516 1.9837-7.9922 2.3255-10.312 0.34181-2.3203 1.0063-5.4844 1.4766-7.0312 0.47035-1.5469 2.366-9.1406 4.2126-16.875s4.3804-17.859 5.6308-22.5c1.2503-4.6406 4.1646-15.82 6.4761-24.844 2.3115-9.0234 4.631-17.883 5.1545-19.688 9.4593-32.613 12.215-44.534 10.135-43.84-1.2549 0.41831-3.0013 5.669-7.7211 23.215-1.7338 6.4453-4.7046 17.203-6.6018 23.906-4.8344 17.08-7.7508 27.845-9.906 36.562-1.0198 4.125-2.6908 10.254-3.7135 13.62-1.0227 3.3661-1.8594 6.8728-1.8594 7.7926 0 0.91982-0.60231 3.6501-1.3385 6.0673-0.73616 2.4172-2.6198 9.6684-4.1858 16.114-1.566 6.4453-3.85 15.516-5.0755 20.156-2.227 8.4334-2.9789 11.642-5.8211 24.844-0.83258 3.8672-2.1474 9.1406-2.9219 11.719-3.0836 10.265-10.266 50.193-9.4239 52.387 0.84777 2.2093 3.3772 1.8591 4.2656-0.59056zm-6.5927-3.2812c0.46595-0.90234 1.1271-4.3828 1.4692-7.7344 0.34211-3.3516 1.0079-8.2031 1.4796-10.781 3.3532-18.328 3.4499-21.632 0.60073-20.538-1.5944 0.61184-3.0663 6.7042-3.7589 15.558-0.63009 8.0555-3.1722 17.891-4.873 18.855-1.9409 1.0991-1.6165 3.1577 0.75973 4.8221 2.6558 1.8602 3.282 1.8339 4.3226-0.18122zm33.9-2.5781c0.43681-1.0312 1.0359-3.3516 1.3314-5.1562 0.29543-1.8047 0.80012-4.4414 1.1215-5.8594 0.33863-1.494 0.18695-2.5781-0.3607-2.5781-1.0562 0-4.0021 11.988-3.887 15.818 0.0407 1.3547 0.28248 1.8303 0.5373 1.0569 0.2548-0.77344 0.82067-2.25 1.2575-3.2812zm21.4-12.66c0.57716-2.3203 1.8892-7.8047 2.9156-12.188 1.0264-4.3828 3.9686-16.617 6.5381-27.188 2.5696-10.57 5.7677-23.859 7.107-29.531 1.3393-5.6719 2.7924-11.367 3.2291-12.656 1.1805-3.4846 2.3931-8.1794 6.6586-25.781 2.1242-8.7656 4.639-18.469 5.5884-21.562 0.94937-3.0938 3.081-11.32 4.7371-18.281 1.656-6.9609 3.568-14.555 4.2488-16.875 2.9126-9.9266 6.1548-25.257 5.8692-27.752-0.87661-7.6556-6.3782 2.0634-9.6065 16.971-0.33499 1.5469-1.8943 7.0312-3.4652 12.188-4.524 14.85-9.2288 32.478-13.511 50.625-1.3386 5.6719-4.0748 17.147-6.0804 25.5-4.4605 18.576-13.409 62.81-15.418 76.219-0.81149 5.4141-1.9102 11.434-2.4417 13.379-1.1725 4.2896-0.16515 6.6355 1.4583 3.3958 0.61826-1.2338 1.5963-4.1417 2.1735-6.462zm-64.51-0.58c0-4.6868-0.15717-5.0415-2.2345-5.0415-2.0693 0-2.2669-0.43327-2.6726-5.8594-0.52619-7.0387-2.4354-12.463-3.4382-9.7678-0.78879 2.1197 1.1873 18.828 2.6762 22.628 2.7584 7.0398 5.669 6.034 5.669-1.9591zm91.199-3.8696c2.5971-9.6842 3.7106-15.325 3.1382-15.898-0.96718-0.96716-3.5972 6.5015-4.3602 12.382-0.40143 3.0938-1.0274 6.3633-1.391 7.2656-0.3636 0.90235-0.24967 1.6406 0.25317 1.6406s1.5648-2.4258 2.3599-5.3906zm-15.489-1.1571c0.64116-2.0544 1.1658-4.3804 1.1658-5.169 0-0.78855 0.37345-2.1663 0.82989-3.0616 0.45644-0.89535 1.723-5.4248 2.8145-10.065 1.0915-4.6406 3.0243-12.445 4.295-17.344 1.2707-4.8984 4.4512-17.766 7.0677-28.594 2.6166-10.828 6.0654-24.75 7.6641-30.938 1.5987-6.1875 4.3019-16.945 6.007-23.906 1.7052-6.9609 4.4428-18.141 6.0835-24.844 1.6408-6.7031 3.8334-15.044 4.8724-18.535 1.0391-3.4912 1.5822-6.6546 1.2071-7.0298-0.86373-0.86373-3.3413 2.454-3.3413 4.4744 0 0.83589-1.4152 6.1342-3.1449 11.774-3.5392 11.54-5.7939 19.802-7.6592 28.067-0.69825 3.0938-1.7062 7.1016-2.2399 8.9062-0.53373 1.8047-1.6618 6.0234-2.5067 9.375-0.84499 3.3516-2.7629 10.945-4.2621 16.875-1.4991 5.9297-3.5788 14.367-4.6214 18.75-1.0427 4.3828-2.9324 12.202-4.1995 17.375-1.2671 5.1734-2.3038 10.596-2.3038 12.051 0 1.4549-1.0547 4.745-2.3438 7.3115-1.6269 3.2391-2.3438 6.2011-2.3438 9.6845 0 2.76-0.38601 6.0335-0.85778 7.2743-0.47178 1.2409-1.0665 3.4832-1.3216 4.9829s-1.1347 5.2412-1.9547 8.3144c-2.2534 8.4454-1.3324 12.043 1.0933 4.2709zm-27.369-5.3187c0.7659-6.13-0.002-7.5057-1.4052-2.5183-1.9716 7.006-2.2728 11.362-0.64725 9.3581 0.77875-0.96 1.7023-4.0379 2.0524-6.8397zm-47.888 2.5174c0.30987-0.50139 1.3796-6.3022 2.3773-12.891 0.99764-6.5885 2.4407-15.776 3.2067-20.417 0.76605-4.6406 2.0177-12.234 2.7815-16.875 0.7638-4.6406 2.3043-12.867 3.4233-18.281 1.119-5.4141 2.3648-11.953 2.7684-14.531 0.40362-2.5781 1.594-8.2734 2.6453-12.656 1.0513-4.3828 3.0223-13.031 4.3801-19.219 1.3578-6.1875 4.1779-18 6.267-26.25s4.1404-16.706 4.5586-18.791c0.41812-2.0851 0.89468-4.4054 1.059-5.1562 0.18257-0.83408-0.41917-1.3651-1.5468-1.3651-2.4444 0-4.2456 4.9592-7.8556 21.629-1.5555 7.1824-4.3054 19.598-6.1109 27.59-1.8055 7.9922-4.1944 18.75-5.3087 23.906-1.1143 5.1562-2.8309 12.961-3.8146 17.344-1.776 7.9123-4.7881 26.275-6.0696 37.002-0.3677 3.0779-1.3446 7.0857-2.1709 8.9062-1.0688 2.3548-1.6389 7.3014-1.9757 17.14-0.4347 12.701-0.14586 15.393 1.3856 12.915zm-13.771-24.87c-0.20064-3.4194-0.65546-4.6875-1.6813-4.6875-1.5831 0-2.4344 6.5496-1.3915 10.705 1.0687 4.2579 3.407-0.32131 3.0728-6.0174zm29.677 5.8594c0.25121-1.1602 1.0995-4.8516 1.885-8.2031 1.7732-7.5654 3.7621-16.312 6.6089-29.062 2.1589-9.6696 3.9121-16.956 6.5417-27.188 2.7437-10.675 5.4129-21.295 6.833-27.188 1.8958-7.8657 8.4757-33.381 9.5497-37.031 0.45509-1.5469 1.7392-6.1875 2.8537-10.312 1.1144-4.125 2.3553-8.3438 2.7575-9.375 0.71761-1.8399 1.7861-5.883 5.8763-22.236 1.1244-4.4956 1.7211-8.4971 1.3259-8.8922-1.082-1.082-4.1319 3.4715-4.8293 7.2102-0.80725 4.3277-4.6752 18.301-7.6075 27.484-1.2849 4.0235-2.7555 9.9192-3.268 13.102-0.51252 3.1825-1.9346 8.9608-3.1602 12.841-1.2256 3.88-2.9241 9.7967-3.7745 13.148-0.85037 3.3516-2.5103 9.8906-3.6888 14.531-1.1784 4.6406-3.6373 13.922-5.4642 20.625-1.8268 6.7031-4.4368 18.094-5.7999 25.312-2.8293 14.983-4.9839 25.03-6.2124 28.968-0.46633 1.4949-0.84787 4.9505-0.84787 7.679 0 2.7286-0.42188 5.2218-0.9375 5.5404-1.2104 0.74804-1.2256 5.1562-0.0178 5.1562 0.5058 0 1.1252-0.94922 1.3764-2.1094zm-20.002-24.683c0.31619-3.5689 0.91011-8.7698 1.3198-11.558 0.55223-3.7574 0.46414-4.8951-0.34051-4.3978-0.597 0.36897-1.0855 1.5652-1.0855 2.6583s-0.39502 3.2831-0.87785 4.8666c-1.6061 5.2677-2.6575 11.935-2.1737 13.785 0.96998 3.7092 2.5995 0.94604 3.1577-5.3545zm-4.1294-12.656c1.1537-6.9205 2.5354-15.958 3.0704-20.083 0.53497-4.125 1.8139-11.297 2.8422-15.938 1.7104-7.7195 4.2032-19.525 8.0175-37.969 0.79975-3.8672 1.8917-8.7737 2.4265-10.903 0.53483-2.1296 0.76976-4.6608 0.52205-5.625-0.31858-1.24-0.48221-1.0147-0.55913 0.76981-0.0598 1.3875-0.53063 2.7835-1.0462 3.1022-0.51563 0.31868-0.9375 1.7358-0.9375 3.1491s-0.39147 2.9704-0.86994 3.4603c-0.47847 0.48984-1.5262 4.0547-2.3283 7.9219-0.80207 3.8672-2.7151 11.883-4.2513 17.812-1.5361 5.9297-3.2682 13.945-3.8491 17.812-0.5809 3.8672-1.8484 9.7734-2.8166 13.125-3.187 11.032-6.401 34.484-4.9278 35.957 1.7412 1.7412 2.7814-1.0415 4.7072-12.593zm73.821-3.2917c0.34938-1.8623 1.2128-4.7146 1.9188-6.3385 1.6775-3.8587 8.5895-26.387 9.3912-30.609 0.34271-1.8047 2.5214-10.875 4.8414-20.156 7.8896-31.562 8.8948-35.622 11.141-45 3.3213-13.868 3.6173-14.872 8.2919-28.125 3.8993-11.055 5.435-19.242 3.6025-19.204-2.5355 0.0518-3.2495 2.1447-10.549 30.923-1.504 5.9297-3.5954 13.273-4.6476 16.319-1.0523 3.0456-1.9132 6.5102-1.9132 7.6992s-0.80584 4.3925-1.7908 7.1189c-0.9849 2.7264-2.0737 7.0159-2.4195 9.5323-0.34582 2.5164-0.99304 5.4695-1.4383 6.5625-1.3915 3.4158-4.4957 14.577-7.9837 28.706-1.8458 7.4766-4.2052 16.758-5.2432 20.625-3.3763 12.579-3.8465 14.665-5.1536 22.862-0.74565 4.6766 1.0617 3.8291 1.9517-0.91515zm-89.011-7.7769c2.2583-17.739 4.0937-28.804 6.5493-39.483 0.6521-2.8359 1.6989-8.1094 2.3263-11.719 0.62736-3.6094 1.9379-9.8184 2.9124-13.798 0.97446-3.9795 2.4279-10.519 3.2299-14.531 0.80198-4.0127 2.2396-10.671 3.1947-14.796 6.341-27.386 6.4947-28.604 3.6085-28.587-0.77863 0.005-2.3087 4.8699-4.3488 13.828-1.7311 7.6015-3.5379 14.82-4.0151 16.042-0.87899 2.2501-3.9272 17.704-5.017 25.435-0.32707 2.3203-1.4033 7.8047-2.3915 12.188-5.0604 22.442-6.4413 28.994-7.0135 33.281-0.3441 2.5781-1.183 7.0078-1.8642 9.8438-0.6812 2.8359-1.5274 7.8038-1.8804 11.04-1.1206 10.272 3.4076 11.48 4.7092 1.2556zm47.104-24.952c4.9816-19.771 11.749-44.379 17.145-62.344 1.0067-3.3516 2.4821-8.8359 3.2787-12.188 0.79662-3.3516 1.8271-7.1484 2.29-8.4375 3.1235-8.6986 1.0303-11.665-3.1424-4.4531-2.5358 4.3828-8.6734 26.229-13.367 47.578-0.73683 3.3516-2.9833 12.422-4.9921 20.156-8.0616 31.039-11.879 49.381-10.682 51.319 0.65009 1.0519 4.3434-11.284 9.4701-31.631zm-54.532 17.648c0.55817-3.0999 0.82874-10.87 0.60129-17.267-0.22747-6.3968-0.4328-13.107-0.45629-14.912-0.0234-1.8047 1.1276-11.508 2.5581-21.562 3.7076-26.061 4.0397-37.777 0.67096-23.672-3.0103 12.604-4.8475 21.182-5.6728 26.484-0.5216 3.3516-1.4558 9.3682-2.0761 13.37-0.62026 4.0021-0.89057 10.413-0.60069 14.245 0.60109 7.9479-1.0513 11.409-3.1977 6.6985-1.1425-2.5076-3.0501-3.1868-4.1142-1.4651-0.33111 0.53575 0.90962 4.7077 2.7572 9.271s3.3592 8.8827 3.3592 9.5986c0 6.763 4.9246 6.1327 6.1711-0.78991zm135.28 0.85081c1.7613-3.291 14.179-55.538 14.179-59.658 0-5.5841-2.8537 1.7159-7.111 18.19-2.316 8.9621-4.9714 18.887-7.8821 29.459-3.4592 12.565-3.012 19.157 0.81447 12.008zm-115.83-9.34c0.30503-1.4287 1.1649-5.3398 1.9108-8.6914s2.8869-13.055 4.7578-21.562c4.4204-20.101 6.3381-28.202 10.986-46.406 5.5748-21.834 5.8036-23.01 4.6914-24.123-1.989-1.989-3.5247 0.19869-5.1735 7.3699-0.93298 4.0578-2.0643 8.8544-2.514 10.659-0.4497 1.8047-1.4852 6.4453-2.301 10.312-0.81585 3.8672-1.8756 8.2969-2.3551 9.8438-0.47943 1.5469-1.4838 6.1875-2.232 10.312-0.74814 4.125-1.985 9.8203-2.7487 12.656-0.76364 2.8359-1.6892 7.0547-2.0568 9.375s-1.6773 9.4265-2.9104 15.791c-2.3178 11.964-2.8435 18.441-1.4257 17.565 0.44903-0.27752 1.066-1.6735 1.371-3.1022zm13.893 0.44924c0.16947-2.5034 0.27792-3.1142 1.2069-6.7969 5.623-22.292 6.3557-26.959 3.9142-24.933-1.8846 1.5641-7.1388 25.902-7.1388 33.067 0 1.8257 1.8884 0.57445 2.0178-1.337zm-45.73-27.68c1.5258-2.4688 2.5106-16.672 1.4445-20.832-1.2764-4.9802-0.68135-9.05 5.346-36.564 3.5998-16.432 3.6996-17.413 1.844-18.125-2.0533-0.78794-3.5493 1.7223-4.8253 8.0972-0.63958 3.1951-2.6382 12.981-4.4414 21.747-6.4516 31.362-7.0833 37.388-4.4586 42.533 1.823 3.5734 3.9961 4.9155 5.0908 3.1441zm-8.893-32.786c4.4202-17.313 7.6543-37.734 5.9761-37.734-1.6907 0-2.8565 2.2487-3.8881 7.5-0.55711 2.8359-1.8603 9.375-2.896 14.531-2.758 13.731-2.0754 26.997 0.80798 15.703zm193.1-1.9714c0.44836-1.8806 1.3436-5.7395 1.9894-8.5755 1.5048-6.6082 5.8273-21.363 8.3674-28.561 2.3422-6.6378 2.4398-7.6804 0.57383-6.1318-0.76974 0.63883-1.8448 2.9053-2.3891 5.0367-0.54425 2.1314-3.4716 10.836-6.5052 19.344-6.7623 18.965-6.8448 19.255-6.1277 21.515 0.8756 2.7587 3.1564 1.2944 4.0913-2.6267zm-197.25-9.5771c0.7293-4.3475 1.5474-9.6582 1.8179-11.802 0.27056-2.1434 0.76651-4.991 1.1021-6.3281 0.3818-1.5213 0.22127-2.4311-0.42897-2.4311-0.57152 0-1.0391 0.63854-1.0391 1.419 0 0.78043-0.37009 2.1515-0.82241 3.0469-2.4276 4.8051-5.474 21.495-4.4234 24.233 1.1058 2.8817 2.4172 0.0688 3.7938-8.1377zm211.97 5.9235c0.8502-1.9336 1.8722-4.3594 2.271-5.3906 0.39885-1.0312 1.204-3.0647 1.7892-4.5188 1.223-3.0387 0.26481-5.6438-1.6423-4.4652-1.7182 1.0619-5.9427 17.89-4.4911 17.89 0.29003 0 1.223-1.582 2.0732-3.5156zm-173.04-9.424c0.84865-4.0508 0.93447-6.2117 0.27294-6.8733-1.1958-1.1958-4.6582 13.662-4.0709 17.469 0.26725 1.7321 2.5486-4.6328 3.7979-10.596zm-45.902 6.1428c0.007-0.1289 1.2662-5.2468 2.799-11.373 4.3546-17.404 4.7076-27.224 0.8397-23.356-2.0737 2.0737-7.4003 24.708-7.4006 31.448-0.00012 2.7923 3.6246 5.954 3.7619 3.2812zm199.31-3.2812c1.752-2.3079 1.6753-8.5886-0.11313-9.2749-2.4177-0.92777-4.2068 1.5039-4.2068 5.7178 0 5.4206 1.7878 6.8927 4.32 3.5571zm-204.04-9.1406c0.0294-2.4836 0.57549-5.5817 3.8003-21.562 0.87421-4.3322-0.35141-6.824-2.4854-5.053-0.70503 0.58512-1.2819 2.0204-1.2819 3.1896s-0.86764 6.2855-1.9281 11.37c-1.9954 9.5667-2.4768 16.332-1.2977 18.24 0.96669 1.5641 3.151-2.6663 3.1927-6.1835zm-5.7646-6.6398c0.67849-4.5981 1.8386-11.163 2.5781-14.588 1.6762-7.7642 1.6994-10.779 0.0877-11.398-3.1543-1.2104-3.5864-0.12817-7.5748 18.972-2.2476 10.764-2.1173 14.286 0.56798 15.352 2.5235 1.0011 3.1368-0.17682 4.3411-8.3383zm51.735 6.6839c0-1.2648 0.38589-3.2687 0.85755-4.4531 3.274-8.2218 7.4687-28.556 5.6601-27.438-3.22 1.99-10.24 34.2-7.47 34.2 0.51562 0 0.9375-1.0348 0.9375-2.2996zm154.7-4.0285c0.008-2.4492 0.84535-7.6172 1.8589-11.484 2.2585-8.6169 2.329-11.135 0.33318-11.9-3.3065-1.2688-8.6777 16.315-7.3621 24.102 1.0279 6.084 5.1475 5.5128 5.17-0.71685zm-237.81-4.6875c2.6428-9.3863 2.1848-21.797-0.80434-21.797-1.5787 0-2.06 1.5936-2.8436 9.4152-0.85951 8.5796 1.9927 18.26 3.6479 12.382zm141.85-6.8506c1.1952-2.2908 4.1089-11.548 6.4749-20.571 5.1163-19.512 17.291-63.686 19.121-69.375 0.41458-1.2891 1.2194-4.0312 1.7884-6.0938 1.4621-5.2991 3.409-11.894 6.172-20.908 2.7526-8.9793 3.0033-11.614 1.0331-10.858-1.2006 0.46073-7.8137 19.498-12.29 35.38-0.85097 3.019-2.509 7.6639-3.6845 10.322-1.1755 2.658-3.6724 10.946-5.5486 18.417-1.8763 7.4714-4.2414 16.538-5.2558 20.147-1.0144 3.6094-2.5313 9.5156-3.3708 13.125-0.83953 3.6094-3.1652 12.366-5.1681 19.458-4.7524 16.829-4.479 20.939 0.72887 10.957zm-121.16-1.1181c3.9213-19.136 3.9375-31.332 0.0332-25.015-0.67671 1.095-3.2201 20.401-3.2337 24.546-0.0104 3.1692 2.5698 3.547 3.2006 0.46875zm166.47-2.3438c0.59154-1.9336 1.419-4.3594 1.8388-5.3906s1.4839-4.4062 2.3646-7.5c0.88075-3.0938 2.4329-8.1562 3.4492-11.25 3.1333-9.5384 4.5213-14.9 4.49-17.344-0.0322-2.5167-1.8352 1.456-3.8292 8.4375-0.51545 1.8047-2.3378 7.9219-4.0496 13.594-4.7002 15.574-6.1314 20.68-6.1314 21.879 0 2.0994 0.80175 1.0579 1.8676-2.4262zm-239.76-2.6561c2.8872-19.048 3.4423-24.282 2.6586-25.066-0.90058-0.90058-1.2461 0.1363-4.7166 14.152-1.9336 7.8094-2.4707 14.348-1.2766 15.542 1.4413 1.4413 2.6738-0.26965 3.3345-4.6288zm-11.688-1.8502c1.146-0.80267 2.0836-2.2543 2.0836-3.2259 0-2.0581-2.0588-3.6696-2.6029-2.0373-0.87594 2.6278-1.8202-0.14727-1.1398-3.35 2.2511-10.597 1.5418-19.356-0.87345-10.787-5.2512 18.632-4.5073 24.331 2.5325 19.4zm191.02-6.03c0.30821-2.3203 0.94601-5.0625 1.4173-6.0938 1.195-2.6148 2.9226-10.936 2.3825-11.476-0.59401-0.59401-3.368 6.1164-3.368 8.1473 0 0.87938-1.074 4.2419-2.3866 7.4722-1.903 4.6834-2.1572 6.1497-1.2546 7.2373 1.5203 1.8318 2.472 0.26391 3.2094-5.2874zm105.73 3.24c1.614-3.3845 1.3474-10.191-0.44239-11.297-1.6693-1.0317-5.4442 11.468-4.1136 13.621 1.1758 1.9025 2.979 0.98263 4.5559-2.3241zm-169.83-0.43664c0.36491-1.284 2.774-10.561 5.3536-20.616 6.2952-24.538 9.0276-34.655 11.774-43.594 2.5498-8.2999 4.4073-14.959 6.5383-23.438 0.77755-3.0938 2.2748-8.1163 3.3273-11.161 1.0525-3.0449 1.9136-6.1589 1.9136-6.92 0-0.76111 1.22-5.0198 2.7111-9.4638s4.0356-12.299 5.6545-17.455c1.6189-5.1562 3.352-10.108 3.8514-11.003 1.277-2.2896 1.1293-3.5284-0.42073-3.5284-0.73223 0-2.0577 1.9991-2.9525 4.4531-0.89309 2.4492-2.3614 6.2021-3.2628 8.3397-0.90147 2.1376-1.9332 5.3017-2.2928 7.0312-0.3596 1.7296-2.0271 7.3634-3.7055 12.52-1.6784 5.1562-4.2187 13.383-5.645 18.281-1.4263 4.8984-3.8133 12.587-5.3045 17.085-1.4912 4.4984-3.3671 11.037-4.1687 14.531-0.80157 3.4938-2.2476 8.8836-3.2135 11.977-1.9434 6.2249-5.4802 19.999-6.2587 24.375-0.27522 1.5469-2.1439 8.3752-4.1526 15.174s-3.6521 13.263-3.6521 14.366c0 2.807 3.0487 2.0616 3.906-0.95501zm-138.55 1.1271c1.4613-2.3644 1.7014-10.493 0.31003-10.493-1.5188 0-4.0019 8.7092-2.9625 10.391 0.65629 1.0619 2.0267 1.1147 2.6525 0.10217zm197.93-10.7c1.4222-5.2951 3.8424-14.057 5.3782-19.471 1.5358-5.4141 3.5667-12.94 4.5131-16.724 0.94638-3.7842 2.6224-10.112 3.7245-14.062 1.1021-3.9502 3.4672-12.456 5.2558-18.901 5.4234-19.543 7.583-27.191 10.722-37.969 1.6517-5.6719 3.3433-11.578 3.7591-13.125 0.4158-1.5469 1.1627-4.2891 1.6599-6.0938 0.49714-1.8047 2.3763-8.9766 4.1759-15.938 1.7996-6.9609 3.9412-14.555 4.7592-16.875 0.81791-2.3203 1.7328-6.9609 2.0332-10.312 0.70391-7.8546-1.1639-6.082-4.2331 4.0172-1.1306 3.7202-3.7164 12.037-5.7462 18.483-2.0298 6.4453-4.485 14.672-5.456 18.281-0.97097 3.6094-2.9039 10.148-4.2954 14.531-1.3915 4.3828-3.5748 11.977-4.8517 16.875-3.3196 12.734-11.098 39.553-13.878 47.85-1.3027 3.8876-2.3685 8.0764-2.3685 9.3085 0 1.232-0.83678 5.0122-1.8595 8.4003-3.9871 13.209-6.5744 22.97-9.7526 36.796-0.58306 2.5363 1.5683 5.9824 3.1315 5.0163 0.4088-0.25266 1.9069-4.7917 3.329-10.087zm-48.098 7.0132c0.77879-0.90234 2.1749-4.8047 3.1025-8.6719 0.92759-3.8672 3.4711-12.938 5.6522-20.156 2.1812-7.2188 5.1107-17.133 6.5102-22.031 1.3995-4.8984 3.1694-11.016 3.9332-13.594 0.76376-2.5781 2.2244-7.8516 3.2458-11.719 2.0553-7.7813 6.6029-21.109 13.755-40.312 8.7214-23.417 14.238-41.603 14.238-46.936 0-1.769-3.4646-0.81184-4.4634 1.2332-2.6895 5.5064-5.9687 14.314-8.9881 24.141-1.822 5.9297-5.0619 16.477-7.1998 23.438-2.1379 6.9609-5.0844 16.453-6.5476 21.094-4.7738 15.14-11.239 37.578-11.239 39.008 0 0.76886-0.43623 1.8342-0.96939 2.3673-0.53318 0.53318-1.3564 3.0433-1.8295 5.5781-1.3358 7.1577-6.9736 27.168-10.213 36.248-3.9144 10.973-3.4695 15.507 1.0121 10.314zm82.097-4.8508c3.2037-3.2036 3.829-4.7485 7.2394-17.884 1.4057-5.4141 3.9557-14.484 5.6666-20.156 3.6111-11.971 7.6195-25.762 8.8558-30.469 0.47404-1.8047 1.7262-6.2999 2.7827-9.9893 1.0564-3.6894 1.915-8.1191 1.908-9.8438-0.0347-8.4982-3.3463-9.9035-5.1801-2.1982-1.0204 4.2875-2.2135 8.3566-9.4837 32.344-2.7554 9.0912-3.6687 12.431-5.383 19.688-0.67003 2.8359-2.1189 8.3203-3.2197 12.188-8.9084 31.296-9.0114 32.146-3.186 26.321zm-143.09-5.7712c0.3292-3.8258 0.89072-8.0702 1.2478-9.4319 0.3571-1.3617 0.27461-2.7074-0.18332-2.9904-0.45793-0.28302-1.3639 2.0967-2.0132 5.2883-0.64935 3.1916-1.5745 6.5355-2.0559 7.4308-1.0243 1.9052-1.1571 5.7464-0.2307 6.6729 1.6503 1.6503 2.6854-0.57969 3.2353-6.9697zm96.662 1.9444c1.5199-4.786 4.9804-17.893 9.1568-34.682 2.9064-11.684 9.9978-38.609 11.992-45.532 1.0297-3.5748 2.0644-7.5543 2.2994-8.8434 0.23498-1.2891 1.7589-7.3326 3.3865-13.43 2.6455-9.9106 3.1176-15.524 0.98522-11.714-1.3107 2.342-6.4867 19.163-6.4867 21.08 0 1.01-0.80625 3.5051-1.7917 5.5446-0.98541 2.0396-2.1048 5.3883-2.4876 7.4417-0.38275 2.0534-1.7444 6.6865-3.0259 10.296-1.2815 3.6094-2.6668 8.0391-3.0784 9.8438-1.1097 4.8647-6.1125 24.012-7.9608 30.469-8.1371 28.424-10.71 53.837-2.9888 29.525zm146.25 2.0333c2.1077-8.1902-1.6432-16.719-4.7303-10.756-1.5974 3.0856-3.3015 11.273-2.6822 12.887 1.1722 3.0548 6.4699 1.5318 7.4125-2.1309zm-287.91-3.6681c1.6577-3.5938 3.237-8.9611 3.6551-12.422 0.40495-3.3516 1.6243-10.482 2.7098-15.845 1.9599-9.684 1.9887-11.122 0.2005-10.017-0.96107 0.59397-1.259 1.4741-4.7881 14.143-1.149 4.125-2.6789 9.6094-3.3996 12.188-4.7603 17.028-3.8414 23.799 1.6223 11.953zm304.01 0.0593c0.80167-2.3528 1.2294-4.6469 0.95051-5.0982-1.8159-2.9383-6.0214 2.24-6.0214 7.4142 0 5.6647 2.785 4.3927 5.0709-2.3161zm-26.923 1.8157c2.2543-5.3217 2.17-10.078-0.17865-10.078-2.1588 0-5.9278 9.2935-4.8782 12.029 1.0294 2.6827 3.4975 1.7307 5.0569-1.9505zm-241.6-2.8311c0.008-1.686 1.069-5.6611 2.3581-8.8335s2.3438-6.3732 2.3438-7.1129c0-1.2687 0.58332-4.0439 4.6743-22.238 0.92752-4.125 2.1929-9.8203 2.8121-12.656 0.61912-2.8359 1.7133-7.2656 2.4314-9.8438 3.1664-11.367 8.2355-28.55 9.8182-33.281 0.94867-2.8359 3.4739-11.062 5.6116-18.281 2.1377-7.2188 5.3046-17.555 7.0376-22.969 1.733-5.4141 3.7879-12.164 4.5664-15 8.9048-32.438 9.3978-35.085 6.4271-34.513-1.8781 0.36169-4.9517 8.8299-9.9748 27.482-1.8052 6.7031-3.9238 14.086-4.708 16.406-0.78419 2.3203-2.477 8.0156-3.7617 12.656-2.916 10.533-7.6159 26.614-13.288 45.469-2.4045 7.9922-5.1348 17.484-6.0674 21.094-0.93252 3.6094-2.53 9.7266-3.55 13.594-1.6318 6.1869-3.0026 12.15-9.0821 39.509-1.6924 7.616-1.7738 12.699-0.21204 13.241 1.6326 0.56604 2.5469-1.1178 2.5638-4.7218zm41.842 0.85272c1.1621-5.1179 11.861-44.079 14.452-52.631 6.8169-22.494 10.777-35.034 14.212-45 9.923-28.793 15.644-47.019 15.157-48.287-1.5788-4.1144-3.8506-0.19103-8.6892 15.006-2.1342 6.7031-4.9525 15.352-6.2628 19.219-1.3104 3.8672-4.4843 13.781-7.0532 22.031s-6.065 19.219-7.7692 24.375c-1.7042 5.1562-4.8881 15.914-7.0754 23.906-2.1873 7.9922-4.7435 17.273-5.6805 20.625-5.0956 18.226-6.0021 24.823-3.2669 23.773 0.77789-0.2985 1.6672-1.6564 1.9762-3.0174zm221.73-7.2045c4.2561-9.8684 3.948-8.4078 2.1525-10.203-3.5039-3.5039-6.1776 0.0911-8.0738 10.856-1.986 11.274 0.91516 10.955 5.9214-0.65302zm-41.148 4.2686c0.89775-1.7975 2.5401-3.9529 3.6496-4.7898 1.6222-1.2236 1.8785-2.052 1.3086-4.2291-0.3898-1.4891-0.80185-4.7256-0.91566-7.1922-0.456-9.883-4.5934-8.5914-8.154 2.5456-4.5498 14.231-1.3998 24.7 4.1114 13.665zm-187.92 0.2268c0.92564-1.8872 4.813-16.11 8.1357-29.766 3.3454-13.749 7.8676-28.59 17.25-56.611 20.556-61.393 21.336-64.326 17.097-64.326-2.3636 0-2.6686 0.74029-9.8486 23.906-3.3545 10.823-15.103 47.369-18.384 57.188-1.4646 4.3828-3.9721 12.398-5.5722 17.812-1.6001 5.4141-3.7391 12.586-4.7534 15.938-1.6134 5.3312-3.1564 11.617-7.4452 30.328-1.3379 5.8372 1.3215 10.015 3.5207 5.5314zm-43.868-3.2812c0.55311-2.1914 1.4131-4.9534 1.9111-6.1378 0.49801-1.1844 0.90549-2.9759 0.90549-3.9811s1.9325-9.7392 4.2944-19.409 4.638-20.324 5.058-23.675c0.41999-3.3516 1.9133-11.578 3.3184-18.281 3.3923-16.183 3.6749-18.281 2.4619-18.281-1.1078 0-4.7909 11.459-7.232 22.5-0.85499 3.8672-2.6133 11.039-3.9073 15.938-1.294 4.8984-2.489 9.75-2.6556 10.781-3.2098 19.877-4.4865 27.403-5.6104 33.074-2.1433 10.814-0.94261 16.976 1.4559 7.4734zm102.79-6.7609c1.4759-6.8724 1.5341-8.0047 0.41143-8.0047-1.1864 0-4.7549 9.7593-4.7549 13.004 0 6.5612 2.4718 3.7162 4.3434-4.9992zm74.292 2.5227c0.48863-0.91303 1.9914-5.8701 3.3394-11.016 1.348-5.1456 2.8219-10.41 3.2752-11.699 0.45331-1.2891 1.972-6.1406 3.375-10.781 1.4029-4.6406 3.341-10.786 4.3068-13.656 2.0019-5.9493 2.2171-8.917 0.71376-9.8461-1.315-0.81274-2.4403 0.91179-3.7125 5.6898-3.2348 12.149-7.0737 25.202-11.263 38.298-3.2762 10.241-3.2996 19.112-0.0344 13.011zm-219.26-0.92c0.0047-0.38671 0.84861-4.8572 1.875-9.9344 2.1856-10.811 2.109-9.9875 0.92868-9.9875-0.51562 0-0.9375 1.2714-0.9375 2.8252 0 1.5539-0.48774 3.7687-1.0839 4.9219-2.4317 4.7039-2.6661 5.5054-2.6661 9.1152 0 2.0695 0.42188 3.7627 0.9375 3.7627s0.94148-0.31641 0.94632-0.70312zm304.56-9.8438c2.1449-11.849 9.4395-35.848 14.177-46.643 1.5464-3.5233 2.8116-7.5738 2.8116-9.001s0.85113-3.5009 1.8914-4.6082 3.5472-6.6189 5.571-12.248c2.0238-5.629 4.5972-12.766 5.7188-15.86 1.1216-3.0938 2.6124-6.2327 3.313-6.9754 3.007-3.188 2.3677 0.95174-2.2219 14.388-5.2297 15.31-5.2955 15.557-4.1449 15.557 0.41376 0 1.5019-2.2148 2.418-4.9219 2.0205-5.9702 3.9142-10.755 6.9576-17.578 3.714-8.327 3.8149-12.415 0.36714-14.87-4.3531-3.0997-4.2434-3.2759-13.064 20.964-1.3135 3.6094-3.3821 9.1657-4.5969 12.347-1.2148 3.1817-2.2087 6.4136-2.2087 7.1821 0 0.76844-1.4052 4.4934-3.1226 8.2776-4.642 10.228-5.2327 11.696-8.6774 21.552-1.7389 4.9757-4.6362 12.282-6.4384 16.237-4.2701 9.3701-5.1148 15.399-2.7682 19.756 2.3812 4.4217 2.6103 4.219 4.0176-3.5556zm-228.73 2.3438c0.50412-1.9336 1.5762-6.6797 2.3825-10.547 0.80628-3.8672 2.3265-10.617 3.3783-15 1.0518-4.3828 2.2748-9.8672 2.7178-12.188 0.44296-2.3203 1.939-8.0156 3.3246-12.656 7.0307-23.548 15.116-52.468 16.643-59.531 1.2711-5.8795 1.3261-7.7285 0.24081-8.0991-3.2069-1.0951-30.554 96.942-32.063 114.94-0.64318 7.6718 1.6364 9.7496 3.376 3.0771zm154.89-5.4363c7.715-25.604 8.5286-29.486 6.18-29.486-0.75052 0-2.573 4.8745-4.8195 12.891-1.987 7.0898-4.427 15.308-5.4222 18.263-0.99527 2.9548-1.5188 5.8429-1.1633 6.4181 1.153 1.8656 3.1643-1.2471 5.225-8.0861zm33.674 4.9676c0.98746-3.7566 7.9974-24.46 10.139-29.945 1.5667-4.0124 2.4278-16.327 1.195-17.089-1.3308-0.82247-1.7928 0.33269-7.4692 18.675-6.8822 22.238-7.6526 25.149-7.6526 28.911 0 4.911 2.4453 4.5552 3.7876-0.55115zm-27.292-1.0909c3.4322-4.1356 6.9682-22.15 4.6312-23.595-1.5796-0.97626-2.926 1.9426-5.2246 11.326-2.9128 11.891-2.7025 16.24 0.59334 12.268zm-200.42-10.49c-0.50085-13.703-2.7538-14.37-2.8632-0.84731-0.0611 7.5554 0.64725 11.013 2.15 10.495 0.7146-0.24639 0.94355-3.3439 0.71314-9.6477zm255.47 6.3149c0.3232-1.3611 2.4289-9.8365 4.6793-18.834 4.6095-18.43 4.4993-19.332-1.9666-16.102-3.5327 1.7643-4.3845 2.7371-5.282 6.0326-3.9539 14.517-5.6523 17.263-10.95 17.702-6.7518 0.55991-3.934 7.4536 3.1395 7.6806 3.3778 0.10838 3.4014 0.0817 5.3018-5.9849 1.0499-3.3516 2.2442-6.9375 2.6542-7.9688 0.40992-1.0312 0.9538-2.5078 1.2086-3.2812 0.25482-0.77344 0.4966 0.0914 0.5373 1.9219s-0.34936 3.7515-0.86682 4.269c-1.1182 1.1182-3.7467 10.816-3.7467 13.824 0 4.643 4.2243 5.235 5.2913 0.74148zm-264.03-2.2404c1.0217-1.6758 1.8593-4.6142 1.8612-6.5297 0.002-1.9156 0.57239-5.2906 1.2677-7.5s1.8118-6.3374 2.4812-9.1734c0.66934-2.8359 1.9399-7.4766 2.8236-10.312 0.88361-2.8359 2.5558-8.5312 3.7159-12.656 2.7168-9.6596 12.593-39.324 15.919-47.812 4.4583-11.38 5.3239-14.531 3.9916-14.531-1.0222 0-5.2981 9.7649-6.7735 15.469-0.66687 2.5781-1.5107 5.1094-1.8752 5.625-0.36452 0.51562-0.95663 2.2031-1.3158 3.75s-1.4462 4.5-2.4157 6.5625c-2.2028 4.6864-12.321 34.347-15.99 46.875-2.7642 9.4375-4.0832 15.343-5.5491 24.844-0.43755 2.8359-1.0893 5.8945-1.4483 6.7969-1.1393 2.8634 1.35 1.8052 3.3081-1.4062zm38.446-3.1376c1.1894-5.7292 0.69908-7.3095-1.4049-4.5284-1.4914 1.9712-1.985 11.169-0.55196 10.283 0.48094-0.29723 1.3616-2.8868 1.9569-5.7547zm256.8-1.8273c1.3931-1.3641 2.9571-5.2546 9.593-23.863 2.1146-5.9297 4.8407-12.969 6.0581-15.643 2.7929-6.1345 2.8753-8.732 0.27686-8.732-4.7461 0-7.2369 3.6493-12.158 17.812-1.1645 3.3516-2.6697 7.3594-3.345 8.9062-2.525 5.7839-7.715 22.466-7.2324 23.247 0.66302 1.0728 5.0961-0.0523 6.807-1.7276zm-316.8-8.85c1.1173-3.8672 2.4189-8.01 2.8925-9.2063 0.48437-1.2235 0.51094-2.8008 0.0607-3.6053-0.70921-1.2673-3.1178 4.7211-3.4561 8.5928-0.16544 1.8932-1.6687 6.5907-2.4157 7.5488-0.42294 0.54245-0.50177 2.0081-0.17517 3.2571 0.3266 1.2489 0.69925 1.8598 0.82811 1.3575 0.12885-0.50233 1.1484-4.0774 2.2657-7.9446zm299.03-11.835c0.0114-0.57973 1.546-4.7985 3.4102-9.375 1.8641-4.5765 4.9869-12.751 6.9396-18.165 1.9526-5.4141 5.5248-15.328 7.938-22.031 2.4133-6.7031 5.5819-15.346 7.0414-19.206 2.8942-7.6547 2.8536-8.4504-0.43177-8.4504-1.7383 0-2.5019 0.83665-3.6367 3.9844-6.155 17.074-9.0524 25.618-9.0524 26.694 0 0.69341-1.8549 5.9923-4.122 11.775-6.4979 16.575-10.938 30.374-11.473 35.655l-0.49238 4.8596 1.9293-2.3438c1.0611-1.2891 1.9387-2.8181 1.9502-3.3978zm-148.04-5.68c1.0565-3.5123 3.3763-11.238 5.1551-17.167 1.7788-5.9297 3.8225-12.68 4.5415-15 6.6519-21.464 10.244-33.097 13.172-42.656 1.8953-6.1875 3.794-12.305 4.2193-13.594 3.1554-9.5635 6.0309-21.497 5.3452-22.183-3.6425-3.6425-17.762 31.397-14.226 35.305 1.607 1.7758 1.5941 2.0609-0.33436 7.3498-1.1034 3.0263-2.0063 6.3239-2.0063 7.328s-0.44225 2.2679-0.98277 2.8084c-0.54053 0.54053-1.7881 4.1054-2.7724 7.9219s-3.0247 10.525-4.5343 14.908c-7.095 20.599-12.336 39.223-12.336 43.839 0 2.9642 2.7323-2.1223 4.7587-8.8589zm91.824-0.76965c0.80863-3.089 1.8289-6.4601 2.2673-7.4914 4.8975-11.521 17.364-50.223 17.968-55.781 1.1685-10.752-3.2034-8.2857-6.8835 3.8836-1.615 5.3406-3.7744 12.241-4.7987 15.335-1.0242 3.0938-4.0305 12.164-6.6806 20.156-6.715 20.251-7.7164 24.152-7.0175 27.334 1.0159 4.6252 3.4621 2.9914 5.1447-3.4362zm-248.44-2.57c0.69103-2.1914 1.5425-4.4062 1.8922-4.9219 1.6179-2.3858 3.6571-10.276 2.8615-11.071-1.1552-1.1552-3.4888 3.4901-5.1851 10.322-0.7425 2.9904-1.6354 6.3863-1.9843 7.5465-0.34887 1.1602-0.23076 2.1094 0.26248 2.1094 0.49323 0 1.4622-1.793 2.1532-3.9844zm44.939-4.1634c0.0233-1.1297 0.46416-2.3148 0.97978-2.6335 0.51562-0.31867 0.9375-1.4608 0.9375-2.538s1.4152-6.2203 3.1448-11.429c6.7846-20.432 8.994-29.991 6.2952-27.236-3.0582 3.1217-15.873 48.043-14.39 50.443 0.74124 1.1993 2.9721-3.6603 3.0328-6.6064zm245.17-8.0871c3.3382-9.522 3.6097-14.616 0.60618-11.374-2.4665 2.6621-7.409 20.938-6.0342 22.312 1.0388 1.0388 1.6875-0.26847 5.428-10.938zm51.806 9.438c0.50395-0.64453 1.3682-2.4375 1.9206-3.9844 0.55239-1.5469 2.4946-6.1734 4.3161-10.281 3.1556-7.1165 3.149-11.132-0.0126-7.7319-1.0906 1.173-8.7857 20.684-8.7857 22.276 0 1.2673 1.4786 1.1063 2.5617-0.27892zm8.6219-4.0314c1.5834-2.3462 2.8789-4.466 2.8789-4.7108 0-0.24475 2.7422-6.0412 6.0938-12.881 6.4511-13.165 7.3335-16.58 4.2842-16.58-1.7353 0-8.5029 11.995-8.5029 15.071 0 0.63506-1.1111 3.5033-2.4691 6.3739-2.3231 4.9106-6.2336 16.993-5.4999 16.993 0.18488 0 1.6317-1.9196 3.2151-4.2658zm-331.53 1.2189c0.27566-1.1602 1.1887-3.9666 2.0289-6.2366 0.89546-2.4192 1.1815-4.4734 0.69123-4.9637-0.73315-0.73315-4.8778 9.7962-4.8778 12.392 0 1.7999 1.6654 0.88017 2.1576-1.1916zm279.59-2.9648c2.7374-4.1778 3.3232-7.945 1.3959-8.9764-2.4344-1.3028-5.1805 1.3044-6.8997 6.5507-2.2175 6.7669 1.5666 8.4347 5.5038 2.4258zm-222.62-3.4335c2.7517-10.863 2.8034-11.18 1.8208-11.18-0.52545 0-0.95536 0.56008-0.95536 1.2446 0 0.68454-1.0547 3.8402-2.3438 7.0126-2.5518 6.28-3.0205 9.9371-1.1957 9.3288 0.63144-0.21048 1.8347-3.0933 2.674-6.4062zm27.81-24.795c4.1529-12.363 9.3264-28.806 11.497-36.541 2.1703-7.7344 4.2965-14.906 4.7248-15.938 1.7924-4.3154 1.9731-6.0938 0.61933-6.0938-0.84949 0-2.445 3.179-4.3524 8.6719-1.6562 4.7695-3.3787 9.5156-3.8278 10.547-0.4491 1.0312-1.5247 4.4062-2.3902 7.5-0.86552 3.0938-1.916 6.4688-2.3344 7.5-1.5387 3.7922-7.443 22.875-7.4486 24.074-0.003 0.68092-0.59689 2.3711-1.3194 3.7559-1.3212 2.5324-7.1591 25.072-7.0583 27.252 0.11682 2.5266 4.6867-9.2835 11.89-30.729zm255.7 26.975c12.799-14.703 12.391-13.984 10.696-18.844-1.3391-3.8414-7.4083-2.3173-7.4083 1.8603 0 0.39002-1.8962 4.6347-4.2138 9.4326-5.7211 11.844-5.3619 14.775 0.92567 7.5516zm-115.91-0.24162c0.18149-1.2825 1.6119-6.1298 3.1786-10.772 1.5667-4.6419 3.1748-9.7054 3.5734-11.252 0.39862-1.5469 1.605-5.1269 2.6808-7.9555 2.453-6.4499 2.5535-8.8128 0.24724-5.8153-0.91689 1.1917-3.058 6.4651-4.7581 11.719-1.7001 5.2536-3.8648 11.661-4.8106 14.24-0.94572 2.5781-1.9596 5.6797-2.253 6.8924-0.29345 1.2127-0.78488 3.0444-1.0921 4.0706-0.43428 1.4506-0.17342 1.7922 1.1726 1.5355 1.0072-0.19206 1.8692-1.3053 2.0611-2.662zm38.678-11.782c1.345-5.1176 3.1427-11.338 3.995-13.822 1.6171-4.714 0.9868-8.5966-0.98847-6.0888-1.6801 2.133-7.5009 20.412-7.8555 24.669-0.72659 8.7235 2.0121 6.0363 4.8489-4.7578zm63.829-9.7958c7.5968-15.453 8.7489-21.6 4.3121-23.008-3.1502-0.99983-4.168 0.88992-11.72 21.76-4.217 11.654 1.7946 12.667 7.408 1.2485zm11.304-6.5155c3.0129-5.8999 3.359-9.3998 0.92948-9.3998-2.6275 0-7.9858 12.553-6.1443 14.395 1.2905 1.2905 2.6894-0.0493 5.2148-4.9948zm-120.15-5.7085c1.3999-4.8662 4.0962-13.91 5.9918-20.098 1.8956-6.1875 4.4372-15.987 5.648-21.776 1.2108-5.7894 2.4445-10.919 2.7414-11.4 0.86359-1.3973-0.44154-3.7818-1.7873-3.2654-1.6296 0.62531-5.8133 10.073-8.075 18.234-0.99879 3.6042-2.1729 7.2769-2.6092 8.1614-0.43627 0.88456-1.9345 5.4052-3.3293 10.046-1.3948 4.6406-3.1438 10.336-3.8867 12.656-1.5993 4.9958-1.6891 8.5537-0.33846 13.417 1.47 5.2937 2.8109 3.8741 5.6446-5.9762zm69.841 0.28168c0.34723-1.9273 0.91562-3.9261 1.2631-4.4417 0.34746-0.51563 1.8085-4.9453 3.2468-9.8438 1.4383-4.8984 3.4706-11.016 4.5162-13.594 2.7333-6.7392 3.1642-9.8438 1.3663-9.8438-1.9685 0-2.3893 0.82574-5.9551 11.687-1.6985 5.1735-4.142 12.57-5.43 16.438-3.5931 10.788-4.1296 15.506-1.61 14.157 1.2149-0.65019 2.2138-2.3999 2.6028-4.5593zm-88.166-2.868c0.31328-1.8968 1.0002-4.5834 1.5265-5.9703 1.0007-2.637 0.33478-4.9269-1.1635-4.0009-0.47999 0.29665-0.87272 1.584-0.87272 2.8608s-0.67509 3.3517-1.5002 4.611c-1.7398 2.6552-3.2364 8.5328-2.3887 9.3805 1.0276 1.0276 3.8117-3.3277 4.3986-6.8811zm98.258-4.855c1.7729-4.8984 4.3359-11.335 5.6954-14.302 2.6901-5.8724 2.2176-9.1351-1.3231-9.1351-1.3861 0-2.1335 1.2259-3.2866 5.3906-0.82086 2.9648-2.7781 9.1875-4.3495 13.828-6.3703 18.813-3.4055 22.645 3.2638 4.2188zm-35.94-0.26c0-0.53584 1.0338-3.1595 2.2973-5.8303s3.6058-9.0396 5.2052-14.153c1.5993-5.1133 3.3083-10.141 3.7977-11.172 4.2644-8.9857 4.6497-16.54 0.97702-19.155-4.4902-3.1973-5.2762-2.6244-7.9523 5.7955-3.1855 10.023-3.172 11.162 0.12827 10.817 3.1253-0.32714 3.1243-0.27499-0.22251 11.449-1.3984 4.8984-3.0294 11.016-3.6245 13.594-0.5951 2.5781-1.3814 5.1496-1.7473 5.7144-0.36593 0.5648-0.92818 2.8851-1.2495 5.1562l-0.58415 4.1293 1.4874-2.6853c0.81806-1.4769 1.4874-3.1237 1.4874-3.6595zm16.082-2.5721c1.67-7.56 2.173-14.989 1.0148-14.989-1.2057 0-5.9058 15.242-5.8754 19.053 0.0528 6.6296 3.0525 4.1217 4.8607-4.0638zm-38.544-2.7172c0.41739-1.3356 1.6775-4.7487 2.8002-7.5847 2.75-6.9463 5.5728-17.097 5.0085-18.01-1.4284-2.3112-2.1179-0.90205-6.0598 12.385-0.53541 1.8047-1.3485 4.125-1.8068 5.1562-1.4205 3.1964-3.7322 11.96-3.6928 13.998 0.0429 2.2182 2.3349-1.4147 3.7506-5.9449zm45.633-2.1939c1.1272-4.4977 3.3148-10.738 6.3265-18.047 3.9514-9.5896 3.9828-10.58 0.45541-14.366-2.847-3.0559-4.1906-2.5245-6.9474 2.7479-2.7501 5.2595-2.5879 7.8891 0.42754 6.932 2.3749-0.75375 2.3659-0.48883-0.35747 10.588-3.0307 12.326-3.999 19.814-2.3585 18.239 0.67119-0.64448 1.7755-3.3867 2.4539-6.0938zm-71.901-5.6251c2.8225-8.8986 3.6232-17.069 1.4011-14.297-1.6924 2.1116-6.1084 15.871-6.1084 19.033 0 4.4837 2.6186 1.8492 4.7073-4.7359zm-33.626-9.2022c1.4228-4.349 2.981-9.5947 3.4625-11.657 0.858-3.6748 5.588-19.336 11.751-38.906 3.1704-10.068 3.325-12.493 0.76516-11.999-1.4857 0.28643-6.6858 15.55-11.913 34.968-1.3881 5.1562-3.1009 11.144-3.8062 13.307-0.7053 2.1626-1.6901 6.4638-2.1884 9.5583-0.49836 3.0945-1.3551 6.4653-1.9039 7.4908-1.3517 2.5256-1.2737 5.9859 0.12435 5.5199 0.61719-0.20572 2.2863-3.9323 3.7092-8.2812zm31.208-7.4384c0.91097-2.8359 1.9966-6.4219 2.4125-7.9688 0.41591-1.5469 2.2704-8.0638 4.1211-14.482 3.7177-12.893 4.0061-15.049 2.0127-15.049-0.85435 0-2.0606 2.3299-3.2762 6.3281-1.0582 3.4805-3.1547 10.336-4.659 15.234-1.5042 4.8984-3.43 11.595-4.2796 14.882-2.7216 10.529 0.34215 11.411 3.6684 1.0558zm46.54-0.002c0.87745-2.8347 2.9478-8.74 4.6007-13.123 3.997-10.598 4.0606-10.854 3.3768-13.579-0.67932-2.7067-3.1475-3.1488-4.0095-0.71817-0.32001 0.90235-1.1316 2.2858-1.8036 3.0743-0.67196 0.78851-1.841 3.7416-2.5978 6.5625-0.75683 2.8208-2.2523 7.6206-3.3232 10.666-1.9513 5.5491-2.5214 10.92-1.2898 12.151 1.6438 1.6438 3.5758-0.28365 5.0464-5.0346zm21.146 1.1741c4.8076-11.442 6.0229-19.635 2.3223-15.656-1.7478 1.8792-6.8556 18.675-5.9537 19.577 1.1298 1.1298 1.8241 0.37996 3.6314-3.9212zm-25.312-17.843c0.75194-0.75193 1.6119-2.5907 1.911-4.0862 0.29909-1.4954 0.91118-2.9461 1.3602-3.2236 0.44902-0.27751 0.81641-1.2098 0.81641-2.0718 0-0.86194 0.92335-3.7949 2.0519-6.5178 1.494-3.6047 1.7711-5.2313 1.0192-5.9833-1.3064-1.3064-3.0696-0.26736-3.0757 1.8124-0.003 0.87192-1.2361 5.0242-2.7412 9.2274-1.5051 4.2031-2.9236 9.4766-3.1523 11.719-0.22864 2.2422-0.22241 3.27 0.0139 2.284 0.23625-0.986 1.0448-2.4079 1.7967-3.1599zm-156.21 1.184c1.5622-1.8823 0.0513-7.3526-2.1478-7.776-2.6922-0.51847-4.0163 3.7804-2.0762 6.7412 1.8571 2.8342 2.5831 3.0121 4.224 1.0349zm117.04-21.581c3.9689-12.162 4.7708-17.866 1.8888-13.436-1.1835 1.8192-7.1472 21.162-7.9117 25.661-1.2439 7.3206 1.3873 1.98 6.0228-12.225zm-9.2108 7.8862c0.45434-1.7388 2.3648-8.6459 4.2455-15.349 3.9535-14.091 4.6631-17.858 3.4994-18.577-1.9273-1.1912-3.2836 1.3636-4.0766 7.6786-0.46378 3.6936-1.24 7.4569-1.7249 8.363-0.48492 0.90608-1.3543 4.254-1.932 7.4397-0.57769 3.1858-1.6655 6.9716-2.4173 8.4129-1.4764 2.8304-1.7582 5.2097-0.73786 6.23 0.97727 0.97727 2.2278-0.69261 3.1437-4.1979zm29.186-0.58337c3.279-3.5461 7.2522-15.068 5.5573-16.116-3.6567-2.26-5.3281-0.2333-8.0917 9.8117-2.6378 9.5874-1.9904 11.198 2.5345 6.3043zm-32.102-15.938c0.64199-2.9648 1.4035-6.4028 1.6922-7.6398 0.75247-3.2242-1.3247-1.687-2.9381 2.1744-2.17 5.19-2.83 10.86-1.26 10.86 0.87033 0 1.7483-1.888 2.5067-5.3906zm22.569 3.0465c0.6419-0.77344 1.9443-1.4062 2.8943-1.4062 2.9171 0 4.2002-3.6346 2.0442-5.7906-3.0712-3.0712-9.626 2.0855-9.626 7.5729 0 1.5197 3.3363 1.252 4.6875-0.37606zm-268.3 532.73c-2.3087-1.8458-2.5809-4.8833-1.136-12.678 1.2532-6.7608 1.6842-9.9658 4.0084-29.807 0.4873-4.16 1.3683-10.066 1.9578-13.125 1.5942-8.2718-0.85577-26.241-6.1269-44.936-4.6952-16.653-8.521-35.536-9.4454-46.622-0.76795-9.2084-2.4-9.4921-5.4168-0.94173-0.74465 2.1106-2.1087 4.9894-3.0312 6.3973-0.92253 1.408-2.8348 8.2932-4.2494 15.3-1.4146 7.0073-3.4789 14.359-4.5872 16.338-1.8184 3.2462-1.9157 4.1155-0.99661 8.9062 3.4748 18.112 1.2728 30.168-3.4545 18.912-1.6616-3.956-3.5813-4.847-4.5655-2.1189-1.9301 5.35-7.726 9.5101-10.694 7.6758-1.0916-0.67463-0.96855-2.1351 0.76199-9.0449 1.1351-4.5322 2.3501-9.9278 2.7-11.99 0.34993-2.0625 1.4229-5.3152 2.3845-7.2283 2.4647-4.9038 2.2638-15.81-0.60681-32.941-1.2828-7.6554-2.3389-15.249-2.3468-16.875-0.03866-7.9614-3.8783-5.5791-8.2331 5.1083-5.2742 12.944-6.8077 20.612-7.7395 38.7-0.83514 16.213-1.5025 19.33-4.1388 19.33-2.6657 0-4.2493-3.4318-4.3602-9.4488-0.1562-8.55-0.9589-11.51-3.406-12.59-3.01-1.32-2.698-3.3 2.5889-16.46 8.0241-19.96 10.991-39.96 8.4751-57.15-1.8972-12.96 11.333-50.872 16.092-46.112 0.89161 0.89161-0.11867 4.3322-4.043 13.769-4.8344 11.625-7.9063 29.545-6.3732 37.179 0.68736 3.4226 0.71964 7.4029 0.1015 12.514-0.84081 6.9522-0.33562 10.462 1.158 8.0454 0.34644-0.56055 1.4689-1.0192 2.4943-1.0192 2.439 0 6.2591-4.1465 8.421-9.1406 0.94864-2.1914 2.0562-3.9872 2.4612-3.9908 0.40504-0.004 1.7499-1.5856 2.9887-3.5156 1.2387-1.9301 2.9451-4.5639 3.7919-5.853 4.1052-6.2489 13.446-32.338 16.447-45.938 2.0828-9.4378 3.2568-11.653 6.3664-12.015 3.1924-0.3716 3.2086-0.6258-0.67331 10.609-1.7816 5.1562-4.1412 12.539-5.2436 16.406-1.1024 3.8672-3.2714 10.617-4.8201 15-3.6906 10.444-6.0734 19.17-8.1927 30-0.45404 2.3203-1.7504 8.4375-2.8807 13.594-1.8834 8.5914-2.436 14.026-2.1925 21.562 0.04998 1.5469 0.05793 5.4147 0.01765 8.5951-0.1532 12.099 5.5518 12.323 7.9093 0.31114 1.8598-9.4761 2.4637-11.337 5.4756-16.875 5.7254-10.527 7.681-17.002 8.4947-28.125 3.5938-49.124 8.8052-73.089 18.308-84.191 1.7715-2.0696 3.2303-4.1177 3.2417-4.5513 0.04795-1.8138 3.4708-5.2462 4.1445-4.1562 0.37598 0.60836 0.24123 1.6391-0.29946 2.2906-0.54069 0.65148-1.6233 3.6425-2.4058 6.6468-0.7825 3.0042-2.2582 6.8782-3.2793 8.6089-2.1319 3.6133-8.683 22.498-10.692 30.821-5.5387 22.948-2.9268 71.206 5.6831 105 1.3137 5.1562 2.695 10.852 3.0696 12.656 3.4581 16.66 8.446 23.009 8.446 10.752 0-3.7598 0.76293-8.3735 1.9766-11.953 1.0871-3.2064 2.3012-8.9939 2.6981-12.861 0.39681-3.8672 1.6634-9.9844 2.8145-13.594 2.0086-6.2976 3.4772-15.923 5.6364-36.939 0.551-5.3633 1.2489-10.151 1.5508-10.64 0.90371-1.4622 0.40955-55.791-0.56389-61.995-0.49528-3.1564-1.1606-7.7681-1.4786-10.248-0.54067-4.2175-2.5053-5.8322-2.9738-2.4443-1.3212 9.5526-2.5062 14.922-3.2931 14.922-1.1135 0-0.29487-13.913 1.2135-20.625l0.94808-4.2188 5.0924-0.20709c5.6533-0.2299 6.332 0.35825 7.481 6.4834 0.51542 2.7475 0.28193 3.7388-1.1744 4.9856-2.8956 2.4793-1.9627 83.512 1.0842 94.167 3.2849 11.488 7.12 10.056 7.1098-2.6553-0.002-2.3848 1.4458-12.141 3.2171-21.68 6.105-32.877 6.9928-47.674 3.4542-57.569-2.3966-6.7011-2.3926-6.1814-0.0466-6.1814 7.6757 0 12.048 34.646 7.0394 55.781-0.85533 3.6094-2.1966 9.3047-2.9805 12.656-0.78392 3.3516-2.4829 7.9075-3.7756 10.124l-2.3502 4.0305 1.1531 18.47c1.7793 28.5 1.0251 41.51-2.837 48.938-1.9831 3.8144-3.3386 1.3866-3.0901-5.5349 0.18151-5.0573-0.12324-7.3526-1.1229-8.4572-1.0371-1.146-1.333-3.7999-1.212-10.871 0.17106-9.999-0.97404-15.047-4.0433-17.825-1.1958-1.0822-1.8397-2.8777-1.8397-5.1297 0-3.9078-1.6561-9.3696-2.841-9.3696-1.0568 0-1.606 2.0169-2.808 10.312-0.56038 3.8672-1.5906 9.7734-2.2895 13.125-2.5568 12.262-2.9654 16.003-2.2765 20.842 1.4428 10.134 1.0306 14.876-1.6266 18.71-5.1588 7.4441-6.1691 36.883-1.6756 48.826 1.5142 4.0248 1.7299 8.3257 0.48332 9.6373-0.46557 0.48984-1.0018 1.7344-1.1916 2.7656-0.27665 1.503-1.0852 1.875-4.0754 1.875-3.9821 0-6.7295 4.7576-6.9363 12.011-0.22185 7.7817-3.6778 13.225-6.8075 10.723zm-37.021-158.91c2.0172-6.8108 3.8281-17.973 3.0429-18.755-2.075-2.0674-6.2493 7.7483-6.6429 15.621-0.42022 8.4055 1.5347 10.108 3.6 3.1346zm42.402 33.572c-2.441-2.5478-2.608-3.1598-1.9863-7.2786 0.37333-2.4733 0.9963-8.6763 1.3844-13.784 1.2015-15.814 7.6323-17.995 7.5197-2.5508-0.1599 21.925-2.1213 28.62-6.9178 23.614zm-52.077-79.041c0.005-0.64453 1.4816-3.0242 3.2812-5.2882 1.7997-2.264 3.2722-4.4788 3.2722-4.9219 0-0.44307 0.63281-0.80557 1.4062-0.80557 2.2643 0 1.6543 1.8448-2.3741 7.1804-3.6889 4.8859-5.6039 6.2008-5.5855 3.8352zm52.96-2.761c-5.3215-3.0182-7.7962-7.8945-6.093-12.006 2.2345-5.3946 5.5718-4.2807 5.6227 1.8767 0.11132 13.45 10.338 7.2664 12.791-7.7344 0.60596-3.7052 1.6279-4.5107 2.5788-2.0327 3.3901 8.8346-7.8766 23.88-14.9 19.897zm-41.686-37.25c-2.0646-3.8576-0.02415-9.9279 5.2882-15.733 1.4562-1.5911 5.3175-5.8879 8.5807-9.5485 3.4598-3.8811 6.684-6.6556 7.7344-6.6556 2.8288 0 2.2252 1.0427-4.3566 7.5271-9.7928 9.6477-13.131 14.753-12.7 19.426 0.18283 1.9846 4.2098 1.298 6.8735-1.1719 3.4399-3.1896 5.9533-3.2337 4.28-0.075-3.4198 6.4556-13.449 10.436-15.7 6.2304zm-5.098-11.06c-1.5282-1.5282 0.06365-4.1502 6.5538-10.795 3.9032-3.9961 7.4852-7.2656 7.96-7.2656 1.9029 0 0.60069 2.0869-4.7998 7.6923-3.1147 3.2328-5.8949 6.8019-6.1784 7.9312-0.52334 2.0852-2.5149 3.4578-3.5357 2.4369zm208.51-256.82c0.006-4.0818 2.989-8.0556 7.8735-10.487 5.8784-2.9256 6.6764-1.7161 1.7049 2.5838-2.2065 1.9084-4.7378 4.8992-5.625 6.6461-2.1051 4.1448-3.958 4.7338-3.9534 1.2566zm-7.9701-21.367c-4.7633-2.3821-7.0334-4.5709-7.0334-6.7814 0-1.8216 2.2875-1.4861 4.1883 0.61424 4.3259 4.78 12.265 5.6136 27.687 2.9071 8.668-1.5213 8.8782-1.6223 10.515-5.0538 1.2868-2.6986 2.3684-3.3667 8.3722-5.1718 6.2807-1.8884 7.2264-2.5088 10.623-6.9697 2.8847-3.7891 3.8052-4.5072 4.0689-3.1743 0.54434 2.7514-6.6556 12.217-9.8065 12.892-4.6926 1.0057-9.7092 3.527-9.7092 4.8798 0 6.0801-29.56 10.531-38.904 5.8578zm-17.95-3.3135c-7.8162-3.154-16.271-18.349-16.271-29.242 0-5.1898 4.0137-0.25915 5.2234 6.4168 1.1148 6.1522 11.165 19.068 14.837 19.068 2.0888 0 3.5173 2.297 2.2294 3.5848-1.2715 1.2715-3.1618 1.3257-6.0193 0.17262zm77.479-11.698c0-0.75801 1.3078-2.34 2.9062-3.5156 5.5436-4.0771 8.3438-12.964 8.3438-26.482 0-8.629 0.48982-10.812 2.4262-10.812 2.8396 0 2.7032 23.072-0.16914 28.608-0.72576 1.3989-1.3196 3.0384-1.3196 3.6434 0 0.60498-2.0184 3.088-4.4853 5.5178-4.46 4.3929-7.7022 5.6725-7.7022 3.0397zm-21.036-13.721c-7.5558-7.9359-13.448-9.0444-31.933-6.0073-15.752 2.5882-19.313 1.2692-6.3042-2.3356 9.8149-2.7198 26.453-3.488 33.182-1.5319 9.5596 2.7791 9.772 1.4299 1.1579-7.3554-3.4006-3.4682-6.7813-7.7379-7.5126-9.4882-1.0909-2.6109-1.8324-3.1823-4.1296-3.1823-2.4994 0-2.7999-0.30852-2.7999-2.8741 0-4.6192-1.502-6.5009-5.1892-6.5009-2.5526 0-3.2483-0.37695-3.2483-1.7602 0-5.4879 7.5887-3.7082 11.503 2.6977 1.1028 1.8047 2.7122 3.7972 3.5766 4.4279 0.86438 0.63067 2.2143 2.74 2.9999 4.6875 0.81238 2.014 4.5252 6.5164 8.61 10.441 3.959 3.8039 6.9742 7.4411 6.7192 8.1055-2.6847 6.9962-2.8014 8.9308-0.70978 11.76 1.8967 2.5654 2.0014 4.6406 0.23414 4.6406-0.38843 0-3.1588-2.5759-6.1564-5.7243zm-34.59 2.29c-1.9121-1.9121-0.37986-3.125 3.9477-3.125 5.1785 0 8.3139 2.1556 4.5877 3.1539-2.8504 0.76369-7.7594 0.74705-8.5354-0.029zm-23.679-7.342c-1.6667-2.5437-1.4567-5.1907 0.89285-11.252 0.79951-2.0625 1.4722-6.3243 1.4948-9.4707 0.0442-6.1541 2.7352-11.772 5.9335-12.388 1.9539-0.3763 2.2649 3.1251 0.34306 3.8625-0.82903 0.31813-1.4463 2.8552-1.7922 7.3659-0.2902 3.7844-1.4558 9.3515-2.5902 12.371-1.6744 4.4574-1.8642 5.9263-1.0084 7.8046 1.9138 4.2004-0.73462 5.581-3.2734 1.7063zm-14.62-18.79c0.25419-6.6407-0.0327-12.928-0.74259-16.273-1.2802-6.0324 0.32709-12.058 2.4813-9.3025 1.6224 2.0752 3.3956 29.764 2.1357 33.35-2.5831 7.354-4.3201 3.8683-3.8745-7.7748zm29.406 1.6322c-4.026-2.0283-4.8966-2.8761-4.5142-4.3961 3.32-13.22 10.56-31.41 12.5-31.41 1.7957 0 1.5524 1.0105-2.4169 10.036-7.965 18.111-7.3435 21.858 3.0221 18.218 12.765-4.4827 16.878 3.6627 4.4738 8.8592-4.4591 1.8681-7.3558 1.5795-13.077-1.3026zm97.332-7.2497c0-0.27595 0.71437-1.592 1.5875-2.9245 1.2483-1.9052 1.6747-5.3228 1.9958-15.997 0.47675-15.847-0.30311-16.793-6.4891-7.8712-3.4902 5.0335-3.7423 7.0288-1.1545 9.1363 2.1864 1.7806-1.448 2.5124-4.0406 0.81365-6.5618-4.2995 3.951-18.776 12.925-17.798 2.245 0.24451 5.0937 0.5523 6.3306 0.68399 3.9044 0.41569 3.1688-1.844-1.0331-3.1735-3.2637-1.0327-4.0283-1.699-4.0283-3.5104 0-1.2297-0.63281-2.5657-1.4062-2.9689-4.9936-2.603-9.4118-4.012-13.224-4.2174-2.4104-0.12986-5.8-0.86898-7.5323-1.6425-5.5368-2.4723-9.2197-3.4086-21.098-5.3641-6.3904-1.052-12.636-2.2996-13.88-2.7725-1.2438-0.47289-7.6693-1.0935-14.279-1.3792-6.6096-0.28566-16.658-1.036-22.33-1.6673-19.66-2.19-40.78-0.16-40.78 3.92 0 0.89617-0.83018 2.3807-1.8448 3.299-1.2921 1.1694-1.6007 2.1257-1.03 3.1922 1.4248 2.6625 2.1077 9.8739 1.1684 12.337-0.65233 1.7104-0.55823 2.8531 0.3356 4.0755 1.7667 2.4161 0.6818 4.3289-2.4553 4.3289-2.0386 0-3.0395 0.67957-4.1425 2.8125-2.3104 4.4679-8.9062 3.5497-8.9062-1.2398 0-1.3163-0.31602-1.5498-1.1719-0.86586-0.66756 0.53343-1.9788 0.61119-3.0469 0.18068-2.709-1.0919-12.442-1.0548-13.125 0.05-0.85929 1.3904-2.3438 1.1356-2.3438-0.40222 0-1.2707-5.091-3.1324-13.094-4.7886-1.7878-0.36994-3.8971-1.0136-4.6875-1.4302-8.504-4.4834-19.661-9.4762-24.088-10.78-9.7178-2.8612-11.361-3.8919-13.341-8.3692-1.3522-3.0567-2.7792-4.5918-5.4215-5.8318-6.4542-3.029 0.41707-15.609 10.143-18.569 1.2146-0.36969 3.57-1.6921 5.2342-2.9387 4.8326-3.62 21.96-12.516 24.091-12.513 1.0699 0.000937 4.6875-0.60482 8.0391-1.347 3.3516-0.74223 13.477-2.4449 22.5-3.7836 19.788-2.9358 20.625-3.1076 20.625-4.2303 0-1.1128-23.218-0.20002-25.462 1.001-0.88125 0.47163-2.7902 0.83077-4.242 0.79809l-2.6398-0.05943 2.3438-0.94996c9.6614-3.9159 18.588-4.719 45.938-4.1326 15.316 0.32838 33.241 0.15575 42.001-0.40449 9.9769-0.63806 17.3-0.66468 21.094-0.07668 3.1964 0.49537 11.401 1.1923 18.234 1.5488l12.422 0.64813v-2.3495c0-6.8076-6.7222-9.0676-15.777-5.3044-6.1702 2.5642-8.8164 1.8923-11.525-2.9262-3.2196-5.7284-11.321-5.4023-17.889 0.71997-5.9445 5.5418-14.478 3.3303-19.131-4.958-2.0947-3.7312-12.441-1.5196-21.356 4.5652-4.0036 2.7324-4.2508 2.8028-5.9806 1.7049-1.781-1.1304 8.7472-25.694 13.326-31.091 1.5987-1.8846 3.5354-10.07 2.875-12.151-0.34782-1.0959 0.22464-2.1575 1.6764-3.1087 1.4857-0.97347 3.496-4.8002 6.165-11.735 6.1538-15.99 11.933-20.13 29.647-21.236 11.413-0.71265 22.75 0.95701 25.909 3.8158 2.5181 2.2789 6.4347 9.2828 6.4347 11.507 0 1.0527 0.85998 3.445 1.9111 5.3164 2.8733 5.1157 4.3455 11.881 5.6132 25.795 0.81455 8.9397 1.9261 14.924 3.8422 20.686 1.7449 5.2469 2.696 10.052 2.696 13.62 0 5.9222 1.7516 9.6797 4.5125 9.6797 3.0844 0 30.915 7.4046 36.765 9.7818 3.2562 1.3231 6.843 2.4057 7.9706 2.4057s4.5353 1.3338 7.5727 2.964 9.6779 4.3673 14.757 6.0824c14.506 4.8986 31.844 15.93 32.933 20.954 0.99785 4.6024-0.9196 5.2834-4.2372 1.5048-4.9006-5.5814-17.498-13.23-31.836-19.329-3.8672-1.645-7.7638-3.3701-8.6592-3.8335-0.89535-0.4634-2.4983-0.84254-3.5622-0.84254s-3.2544-0.68264-4.8678-1.517c-2.1251-1.0989-4.2437-1.3614-7.6878-0.95238-4.0024 0.47531-6.8299-0.0988-17.879-3.6301-7.2188-2.3071-19.031-5.2199-26.25-6.4728-7.2188-1.253-15.867-2.8991-19.219-3.658-16.43-3.7204-36.684-5.01-55.312-3.5217-7.4766 0.59733-19.178 1.4822-26.003 1.9665-6.8253 0.48422-15.474 1.524-19.219 2.3105-3.745 0.78656-14.461 2.279-23.814 3.3165-19.51 2.1643-34.089 6.3041-34.089 9.6795 0 1.0546 8.6947-0.0283 14.628-1.8219 6.4355-1.9455 25.407-3.977 42.545-4.5555 12.896-0.43532 14.818-0.71309 17.219-2.4881 10.066-7.4418 88.135-2.7853 117.99 7.0374 17.794 5.8551 30.275 9.3634 35.435 9.9603 14.781 1.71 46.714 20.955 63.984 38.561 3.4805 3.5482 6.3281 6.7986 6.3281 7.2231 0 2.8185-11.307 7.9826-21.893 9.9993-8.7234 1.6618-13.257 2.6441-19.597 4.2459-2.977 0.75215-9.5202 0.97967-19.688 0.68459-12.845-0.3728-15.392-0.22061-16.269 0.97231-0.90737 1.2332-2.0118 1.0228-8.6229-1.6421-9.208-3.7117-9.195-3.7185-9.761 5.1006-0.39688 6.1842-0.79519 7.4466-3.1126 9.8655-2.4496 2.5569-4.1817 3.498-4.1817 2.2721zm22.539-20.545c-1.5536-1.8719-8.635-5.2032-11.061-5.2032-4.7029 0-3.1154 3.6519 1.6469 3.7886 1.2891 0.037 3.8203 0.62594 5.625 1.3088 4.4457 1.682 5.1125 1.7007 3.7889 0.10584zm44.254-3.5625c0.69622-1.8932-0.25847-3.5156-2.0687-3.5156-0.92515 0-2.2361-0.66754-2.9132-1.4834-1.2267-1.478-25.757-13.914-35.561-18.028-2.8359-1.19-8.3203-3.5994-12.188-5.3542-3.8672-1.7548-8.5078-3.4657-10.312-3.8021-1.8047-0.33634-3.7031-0.92615-4.2188-1.3107-0.51563-0.38453-2.5765-0.95136-4.5798-1.2596-3.3014-0.508-3.4769-0.4352-1.875 0.7776 0.97203 0.73593 2.3173 1.3515 2.9896 1.3679 0.67224 0.0164 4.891 1.9084 9.375 4.2045s10.88 5.3547 14.214 6.7969c3.3337 1.4422 14.935 7.1015 25.781 12.576 22.182 11.197 20.778 10.603 21.357 9.0302zm10.082-2.6013c0-1.116-0.88513-2.2347-2.1479-2.7148-1.1813-0.44915-2.7023-1.4846-3.3799-2.3011-1.3993-1.686-1.1226-1.5312-20.722-11.596-7.9922-4.104-16.641-8.23-19.219-9.1687-2.5781-0.93875-5.1094-2.0136-5.625-2.3886-1.3524-0.98363-22.751-9.7858-27.188-11.183-2.0625-0.64972-4.199-1.5348-4.7477-1.9669-1.8262-1.4379-12.327-3.466-13.655-2.6373-2.713 1.6926 0.86261 3.8834 12.778 7.8295 10.292 3.4085 23.335 8.3704 30.938 11.769 15.583 6.9671 25.455 11.727 28.241 13.618 1.8849 1.2792 3.8624 2.3257 4.3944 2.3257 0.53198 0 1.7054 0.66807 2.6077 1.4846 5.7044 5.1624 17.726 9.862 17.726 6.9297zm16.875-3.663c0-1.6087-1.1354-2.6615-6.6406-6.1576-0.81194-0.51563-3.4698-2.4141-5.9063-4.2188-4.0978-3.0352-14.06-8.7607-20.734-11.916-1.5469-0.73132-3.6562-1.8042-4.6875-2.3842-3.8925-2.1892-10.536-5.2411-16.875-7.7523-3.6094-1.4298-9.0938-3.7395-12.188-5.1326-16.745-7.54-50.338-15.108-52.031-11.721-0.25781 0.51563 0.58594 1.0684 1.875 1.2283 1.2891 0.15996 4.0312 0.85599 6.0938 1.5468 2.0625 0.69076 6.4922 1.9782 9.8438 2.8609 27.719 7.3009 56.333 18.16 67.34 25.556 1.377 0.9252 3.9801 2.4239 5.7848 3.3304 5.7003 2.8634 14.81 8.8547 18.48 12.155 4.833 4.3449 9.6445 5.6447 9.6445 2.6053zm-15-1.7839c0-1.1974-5.155-5.5244-9.1012-7.6395-6.226-3.337-9.6014-1.7124-3.5303 1.6992 1.5333 0.86162 2.9988 1.8299 3.2566 2.1517 2.0186 2.5199 9.375 5.4927 9.375 3.7886zm-226.08-1.9223c2.3552-1.4925 0.81317-4.3449-2.2384-4.1406-6.9092 0.46266-10.745 1.3962-10.745 2.6153 0 2.0903 10.2 3.2886 12.983 1.5252zm235.45-6.9046c-0.0149-4.874-43.44-29.914-54.137-31.217-7.5263-0.91664-6.5783 1.5245 1.975 5.0852 7.5161 3.129 15.406 6.7966 19.822 9.2149 1.5469 0.84702 5.5547 3.016 8.9062 4.8198 3.3516 1.8039 6.3047 3.5235 6.5625 3.8213 0.95942 1.1083 6.4295 3.8228 7.7036 3.8228 0.72632 0 2.5331 1.2656 4.0151 2.8125 2.7962 2.9186 5.1589 3.6708 5.1527 1.6406zm-267.06-1.0431c3.3875-1.3688 14.967-3.5446 30.738-5.7756 10.668-1.5092 10.876-1.5847 10.075-3.6714-0.37202-0.96946-1.3912-1.2931-3.1627-1.0043-1.4376 0.23436-8.731 1.1018-16.208 1.9277-20.672 2.2836-30 4.7407-30 7.9028 0 2.3098 3.7111 2.579 8.5574 0.62075zm238-2.45c0-0.99149-11.275-7.5459-12.981-7.5459-3.1896 0-0.46885 3.2118 4.7776 5.6398 6.2348 2.8854 8.2031 3.3428 8.2031 1.9061zm-253.12-2.0828c0-3.093-2.0702-4.5256-6.5402-4.5256-5.1649 0-6.3737 0.93324-3.9846 3.0761 3.1085 2.788 10.525 3.8094 10.525 1.4495zm-11.948-8.881c2.9621-1.8799 5.3856-3.7783 5.3856-4.2188 0-1.5276-4.4473-0.79082-6.9074 1.1443-2.2641 1.781-2.5244 1.8104-3.0853 0.3488-0.78958-2.0576 2.5235-4.6088 7.963-6.1318 3.733-1.0452 5.8242-2.9925 4.5655-4.2512-2.1042-2.1042-19.411 5.9111-19.411 8.9898 0 6.6846 4.7585 8.3906 11.489 4.1189zm244.85 1.6492c0.71699-1.1601-1.1651-2.4694-5.5594-3.8674-2.0625-0.65619-4.5822-1.7659-5.5992-2.4659-2.6726-1.8396-5.8004-1.7413-4.2445 0.1334 0.6419 0.77344 1.9763 1.4062 2.9653 1.4062 0.98898 0 2.9412 0.75518 4.3383 1.6782 6.027 3.9818 7.2689 4.4595 8.0995 3.1155zm-200.56-3.7248c14.641-1.9608 17.344-2.5813 17.344-3.9817 0-2.0598-25.736 0.45947-35.243 3.4499-5.759 1.8114-5.7752 3.677-0.0255 2.9222 2.1242-0.27887 10.19-1.3545 17.925-2.3903zm138.44-4.2452c4.8477-0.14812 5.3884-1.2496 1.4261-2.9052-4.0379-1.6871-8.1211-1.8154-11.325-0.35582-1.744 0.79464-3.421 0.78864-6.6474-0.0238-4.6282-1.1654-8.9856-0.15731-5.5079 1.2742 4.1487 1.7078 12.313 3.1092 15.337 2.6326 1.8047-0.28442 4.8272-0.56437 6.7168-0.62212zm-88.453-3.397c13.579-1.7633 10.73-3.7997-4.4547-3.1842-10.661 0.43217-14.141 1.4238-11.301 3.2196 1.7642 1.1154 6.9831 1.1036 15.755-0.0354zm71.949-3.8292c4.9254-7.9696-97.875-12.333-130.84-5.5536-2.3203 0.47723-6.2967 1.204-8.8364 1.615-2.564 0.41496-4.8071 1.3268-5.0437 2.0503-0.54087 1.6542 9.5813 0.99975 21.38-1.3823 19.662-3.9695 112.28-0.92575 117.05 3.8468 0.87615 0.87615 5.6616 0.43767 6.2882-0.57617zm-151.23-4.3036c2.5699-1.4789 0.4506-3.3057-3.1643-2.7277-4.7444 0.75865-7.6283 2.2152-6.857 3.4632 0.52872 0.85549 8.24 0.2895 10.021-0.73555zm162.71-1.9346c-0.4751-2.4672-5.6347-3.7192-18.49-4.4864-10.881-0.64941-15.132 0.29263-7.8278 1.7346 1.4243 0.28118 6.1566 1.1898 10.516 2.0191 4.3596 0.82932 8.1214 1.7026 8.3594 1.9406 1.374 1.374 7.74 0.34078 7.4418-1.2079zm38.452-4.5502c-3.4167-3.4167-35.392-10.651-55.617-12.583-4.6406-0.4433-13.078-1.2518-18.75-1.7966-14.217-1.3657-17.289-1.2879-17.958 0.4545-0.86779 2.2614-0.2277 2.4401 12.038 3.3601 11.608 0.87076 45.125 5.8873 61.701 9.2352 16.736 3.3799 20.937 3.6805 18.586 1.3297zm-195.3-1.244c4.125-0.98824 10.188-2.1003 13.474-2.4712 3.2856-0.37094 7.81-1.3714 10.054-2.2233l4.0803-1.5489-9.1166 0.38576c-5.0142 0.21217-9.8272 0.75853-10.696 1.2142-0.86845 0.45561-2.4416 0.82839-3.4959 0.82839-3.0723 0-14.149 3.9201-13.598 4.8122 0.66405 1.0744 0.63987 1.077 9.2979-0.99717zm122.81-3.7307c13.042-1.9166-32.36-5.5574-64.942-5.2076-15.901 0.17071-17.208 0.42776-15.547 3.0588 0.91601 1.4513 4.0741 1.6051 34.915 1.7002 18.649 0.0575 34.177 0.37388 34.507 0.70313 0.7435 0.74349 4.9316 0.64719 11.067-0.25449zm-11.43-32.087c1.1262-0.5775 3.4053-2.3346 5.0645-3.9048 5.7748-5.4646 16.96-4.5101 19.541 1.6675 1.587 3.7982 1.2178 3.7254 9.3366 1.8425 3.4263-0.79462 6.933-1.2261 7.7926-0.9589 2.184 0.67893 4.1537-0.77945 3.7645-2.7872-0.42239-2.179-4.0692-3.1928-21.708-6.0346-9.8867-1.5929-40.025-2.4345-40.025-1.1177 0 0.90809 4.0831 6.9502 7.5491 11.171 1.1956 1.456 5.9524 1.5227 8.6844 0.12188zm-27.249-7.9991c3.5183-1.7898 3.2523-2.2033-1.4062-2.1866-4.7975 0.01729-6.8179 1.1071-6.0006 3.2369 0.64633 1.6843 2.5666 1.412 7.4068-1.0504zm60.29-6.4495c-1.0009-0.75704-3.1103-1.3814-4.6875-1.3876-1.5772-0.0061-5.1392-0.6157-7.9156-1.3546-4.4313-1.1794-13.298-1.6283-35.733-1.8091-9.0513-0.07294-14.062 1.125-14.062 3.3618 0 1.8266 0.36232 1.9103 5.8594 1.3538 13.606-1.3775 27.097-1.4633 38.203-0.24274 16.73 1.8386 20.686 1.8556 18.336 0.07847zm5.1011-3.7535c0-4.7633-46.752-9.2865-56.666-5.4823-3.9298 1.508 1.0646 2.2408 15.705 2.3043 10.627 0.04607 19.789 0.64761 26.898 1.7659 12.299 1.9348 14.062 2.1119 14.062 1.4121zm3.6522-9.7302c3.3602-2.1277-6.7769-6.9086-13.965-6.5862-1.2891 0.05783-8.4609-0.30112-15.938-0.79768-18.883-1.2541-32.82 0.25324-35.051 3.7913-1.7327 2.7469 0.19589 2.9224 8.0937 0.7364 9.884-2.7357 16.677-3.2209 28.364-2.026 9.0594 0.92626 13.077 1.7241 22.031 4.3748 5.184 1.5347 4.88 1.5108 6.4647 0.50738zm-0.37099-9.4426c0-6.8941-58.528-9.9105-61.122-3.1501-0.87622 2.2834 1.3101 2.9341 6.5768 1.9575 6.4074-1.1881 35.883-0.18467 44.233 1.5058 7.9176 1.6028 10.312 1.5301 10.312-0.31321zm-0.65788-9.0744c0.59112-3.9821-14.721-6.3515-31.647-4.897-17.246 1.4821-16.93 2.9955 0.69581 3.3252 8.3846 0.15686 15.632 0.85958 20.828 2.0196 9.2791 2.0716 9.7525 2.0507 10.123-0.44786zm-38.71-7.357c4.6406-0.76247 10.969-1.4013 14.062-1.4197 5.1504-0.03057 5.4715-0.14951 3.8052-1.4098-4.3588-3.2968-33.583-1.4309-34.105 2.1776-0.37416 2.5865 3.5126 2.7426 16.237 0.65189zm22.031-8.1022c0.00028-2.8614-24.292-5.6881-31.641-3.6818-3.5409 0.96672-4.9335 2.5664-3.4904 4.0095 0.72102 0.72102 35.131 0.40003 35.131-0.32772zm8.4376-2.7279c0-2.9988-2.0997-4.7544-5.4593-4.5648-1.8958 0.10699-4.6832-0.30337-6.1942-0.9119-3.8772-1.5615-10.26-2.3121-13.259-1.5593-3.7991 0.95352-1.7167 2.1058 5.8984 3.2638 3.7217 0.56595 8.7842 1.848 11.25 2.8491 5.087 2.0651 7.7645 2.3835 7.7645 0.92316zm3.94 159.25c-1.3668-1.3668-1.4727-4.1744-0.1875-4.9688 1.4169-0.87569 1.1233-2.3438-0.46875-2.3438-2.0242 0-1.73-2.2291 0.56851-4.3078 2.2636-2.0472 4.6313-6.5779 6.4448-12.333 1.088-3.4528 3.768-5.65 3.768-3.0894 0 0.49225 1.5463 1.1851 3.4362 1.5396 4.6157 0.86592 9.822 4.5334 11.247 7.923 0.63996 1.522 1.6058 2.7673 2.1463 2.7673 0.54051 0 0.98275 0.86083 0.98275 1.913 0 2.2627-3.6258 7.462-5.2036 7.462-0.60557 0-2.7411 1.3054-4.7456 2.9009-4.684 3.7284-5.2648 1.9391-1.4314-4.4096 2.9263-4.8464 4.6755-11.616 3.0014-11.616-0.5303 0-2.0355 2.1141-3.3448 4.698-5.965 11.771-12.618 17.46-16.213 13.864zm-70.464-4.191c0.41893-4.0026 0.0994-4.3203-3.7298-3.708-2.2761 0.36396-3.9356 0.19871-4.3246-0.43062-1.1608-1.8783 1.209-2.9121 8.567-3.7373 8.1387-0.91272 8.9646-1.4782 10.603-7.2583 1.3136-4.634 3.2312-4.8095 3.6729-0.336 0.39201 3.9696-3.2374 10.469-5.8571 10.488-2.8007 0.0208-4.0468 1.0739-4.4204 3.7356-0.40632 2.8955-4.8112 4.1126-4.5112 1.2464zm40.276-6.9155c0-2.777-0.18123-2.9454-2.5781-2.3951-10.9 2.5-17.12 0.99-17.12-4.16 0-2.3719 1.9543-2.3541 4.0012 0.0366 1.9227 2.2455 2.0106 2.2491 11.316 0.46859 9.1206-1.7453 16.596-1.8016 18.866-0.14206 3.0997 2.2666 0.82072 3.7125-5.017 3.1832l-5.2645-0.47738 0.003 2.937c0.002 2.3329-0.43135 2.9986-2.1069 3.2365-1.8088 0.25689-2.1094-0.12603-2.1094-2.6874z"/>
</svg>
